<svg width="252" height="259" viewBox="0 0 252 259" fill="none" xmlns="http://www.w3.org/2000/svg">
<path fill-rule="evenodd" clip-rule="evenodd" d="M148.621 102.376C129.996 90.1671 105.563 93.7845 91.1424 110.886V110.886C75.8238 129.052 76.8139 156.393 93.4088 173.47L135.856 217.151C157.521 239.445 193.125 237.394 212.052 212.761V212.761C230.847 188.299 224.88 152.363 199.229 135.549L148.621 102.376Z" stroke="#C0E0F7" stroke-width="2.57677" stroke-linejoin="round"/>
<path d="M159.779 110.32L101.152 181.4" stroke="#C0E0F7" stroke-width="1.93257" stroke-linejoin="round"/>
<path d="M89.722 112.404L105.781 127.129" stroke="#C0E0F7" stroke-width="1.93257" stroke-linejoin="round"/>
<rect width="13.6697" height="31.7612" rx="6.83485" transform="matrix(-0.644644 0.764483 0.744723 0.667373 109.964 122.023)" fill="#C0E0F7"/>
<path d="M89.7213 112.404C89.7213 112.404 37.87 73.7119 73.941 46.9699C102.169 26.0429 14.6948 22.8692 1.53308 0.740967" stroke="#C0E0F7" stroke-width="1.93257"/>
</svg>
