<svg width="59" height="59" viewBox="0 0 59 59" fill="none" xmlns="http://www.w3.org/2000/svg">
<path fill-rule="evenodd" clip-rule="evenodd" d="M29.5 51.625C32.4055 51.625 35.2825 51.0527 37.9669 49.9408C40.6512 48.829 43.0902 47.1992 45.1447 45.1447C47.1992 43.0902 48.8289 40.6512 49.9408 37.9669C51.0527 35.2825 51.625 32.4055 51.625 29.5C51.625 26.5945 51.0527 23.7175 49.9408 21.0331C48.8289 18.3488 47.1992 15.9098 45.1447 13.8553C43.0902 11.8008 40.6512 10.1711 37.9669 9.05917C35.2825 7.94728 32.4055 7.375 29.5 7.375C23.6321 7.375 18.0045 9.70602 13.8553 13.8553C9.70602 18.0045 7.375 23.6321 7.375 29.5C7.375 35.3679 9.70602 40.9955 13.8553 45.1447C18.0045 49.294 23.6321 51.625 29.5 51.625ZM28.9297 38.4483L41.2213 23.6983L37.4453 20.5517L26.8745 33.2342L21.4047 27.762L17.9286 31.238L25.3036 38.613L27.2064 40.5158L28.9297 38.4483Z" fill="#88C8F1"/>
</svg>
