<svg width="120" height="120" viewBox="0 0 120 120" fill="none" xmlns="http://www.w3.org/2000/svg">
<path d="M82.6425 49.0125C83.6964 49.011 84.7078 49.4281 85.4542 50.1721C86.2007 50.9161 86.6211 51.926 86.6231 52.98C86.6231 55.1775 84.84 56.9568 82.6425 56.9568C81.6149 56.9182 80.6422 56.4827 79.9289 55.742C79.2155 55.0013 78.817 54.013 78.817 52.9846C78.817 51.9563 79.2155 50.968 79.9289 50.2273C80.6422 49.4866 81.6149 49.0511 82.6425 49.0125ZM51.2175 89.4468H42.8156V93.9975H51.2175V89.4468ZM51.2175 82.9875H42.8156V87.5325H51.2175V82.9875ZM51.2175 95.9137H42.8156V100.464H51.2175V95.9137ZM51.2175 76.5206H42.8156V81.0618H51.2175V76.5206Z" fill="#1473B5"/>
<path d="M15.9544 1.0575H103.674C112.266 1.0575 119.259 8.05125 119.259 16.6462V104.364C119.259 112.965 112.267 119.957 103.674 119.957H15.9562C7.36125 119.957 0.365627 112.965 0.365627 104.364V16.6462C0.365627 8.04937 7.35937 1.0575 15.9544 1.0575ZM34.0406 77.1487V107.22H42.8137V102.381H51.2156V107.22H71.8462V96.375H77.3962C85.11 96.375 91.3575 90.12 91.3575 82.395V72.4931H96.1087C96.4833 72.4934 96.8543 72.4198 97.2004 72.2765C97.5465 72.1333 97.861 71.9232 98.1259 71.6584C98.3907 71.3935 98.6008 71.079 98.744 70.7329C98.8873 70.3868 98.9609 70.0158 98.9606 69.6412C98.9606 69.2475 98.8894 68.8631 98.7412 68.5312L91.3594 49.8937C91.3594 49.8937 90.5869 42.1725 89.9025 39.2175C86.8219 25.9219 71.9981 13.8487 55.9237 13.8487C36.3488 13.8487 20.4975 29.7112 20.4956 49.2881C20.4938 60.5869 25.7962 70.6669 34.0406 77.1487Z" fill="#1473B5"/>
<path d="M35.9887 27.2231C36.7056 25.6167 37.8716 24.2517 39.3463 23.2927C40.821 22.3336 42.5415 21.8213 44.3006 21.8175C45.0394 21.8175 45.7462 21.915 46.4287 22.0781C47.9242 20.6831 49.8463 19.8329 51.8845 19.6648C53.9227 19.4967 55.9581 20.0206 57.6619 21.1519C59.6492 20.0922 61.9577 19.8034 64.1448 20.3407C66.3319 20.8781 68.2437 22.2038 69.5137 24.0637C69.7294 24.0506 69.9431 24.0319 70.1756 24.0319C72.2559 24.0326 74.2734 24.7444 75.8937 26.0492C77.5139 27.3539 78.6395 29.1733 79.0837 31.2056C81.06 32.0471 82.6847 33.5458 83.6825 35.4478C84.6804 37.3499 84.9901 39.5385 84.5592 41.6427C84.1282 43.747 82.9832 45.6377 81.318 46.9944C79.6528 48.3512 77.5698 49.0906 75.4219 49.0875C73.5469 49.0875 71.7975 48.5287 70.3444 47.5744C68.8346 48.5997 67.0507 49.146 65.2256 49.1419C63.3319 49.1419 61.5712 48.555 60.1031 47.5575C59.0737 48.7087 57.6619 49.59 56.3062 50.115C53.4675 51.3281 51.2137 54.7369 51.2137 58.3331V68.1244H47.9306V57.8287C47.9587 54.2156 46.6237 51.2681 43.8412 49.6425C43.1109 49.2134 42.4332 48.7006 41.8219 48.1144C41.7795 48.0518 41.729 47.995 41.6719 47.9456C40.9556 47.1769 40.4944 46.3144 40.26 45.2362C41.8454 44.745 43.5523 44.8206 45.0881 45.45C45.2061 45.5037 45.3338 45.5329 45.4634 45.5359C45.593 45.5389 45.7219 45.5156 45.8422 45.4675C45.9626 45.4193 46.072 45.3473 46.1637 45.2557C46.2555 45.1641 46.3278 45.0549 46.3762 44.9346C46.4246 44.8144 46.4482 44.6855 46.4454 44.5559C46.4427 44.4263 46.4137 44.2986 46.3603 44.1805C46.3069 44.0624 46.23 43.9563 46.1345 43.8686C46.039 43.781 45.9267 43.7137 45.8044 43.6706C43.974 42.9255 41.9508 42.7965 40.0406 43.3031C40.0475 41.3856 40.813 39.5488 42.1698 38.1937C43.5265 36.8387 45.3644 36.0757 47.2819 36.0712H47.2969C47.3062 36.0712 47.3119 36.0675 47.3119 36.0675C48.7313 36.0674 50.1312 35.7374 51.4012 35.1037C52.5325 36.417 53.1535 38.0935 53.1506 39.8269V39.9337C53.1431 39.9637 53.1506 39.9825 53.1506 40.0087C53.1008 41.8144 52.3841 43.5378 51.1387 44.8462H51.1312C50.7562 45.2306 50.7675 45.8325 51.1612 46.2037C51.3436 46.3735 51.5834 46.4679 51.8325 46.4681C51.9615 46.4677 52.0892 46.4413 52.2077 46.3904C52.3263 46.3395 52.4334 46.2652 52.5225 46.1719C53.9244 44.7061 54.803 42.8183 55.0219 40.8019C55.5131 40.6969 56.014 40.6442 56.5162 40.6444C57.6581 40.6444 58.8131 40.9181 59.9156 41.4956C60.0485 41.5737 60.2002 41.6139 60.3544 41.6119C60.5296 41.6116 60.7016 41.5645 60.8526 41.4755C61.0035 41.3865 61.128 41.2588 61.2131 41.1056C61.2725 40.9938 61.3092 40.8714 61.3212 40.7455C61.3333 40.6195 61.3204 40.4923 61.2833 40.3713C61.2462 40.2503 61.1857 40.1378 61.1051 40.0402C61.0245 39.9426 60.9255 39.8618 60.8137 39.8025C59.0424 38.8509 57.0053 38.5139 55.0219 38.8444C54.8376 37.0894 54.1464 35.4261 53.0325 34.0575C54.1663 33.1497 55.0669 31.9842 55.6594 30.6581C56.7093 31.4157 57.9077 31.9427 59.1757 32.2044C60.4437 32.4662 61.7527 32.4568 63.0169 32.1769C63.3197 34.3708 64.4062 36.3811 66.0756 37.8364C67.745 39.2918 69.8846 40.0941 72.0994 40.095H72.2156C74.1067 40.0882 75.925 40.8233 77.28 42.1425C77.4615 42.3177 77.7051 42.4139 77.9574 42.41C78.2097 42.4062 78.4501 42.3026 78.6262 42.1219C78.7171 42.0332 78.7889 41.9269 78.8375 41.8097C78.886 41.6924 78.9102 41.5664 78.9087 41.4395C78.9071 41.3126 78.8797 41.1873 78.8283 41.0712C78.7768 40.9552 78.7024 40.8508 78.6094 40.7644C76.8987 39.0991 74.6049 38.1685 72.2175 38.1712H72.1012C71.4469 38.1712 70.83 38.085 70.23 37.9237C71.1429 36.6695 72.4324 35.7393 73.9106 35.2687C74.1524 35.1907 74.354 35.0208 74.4718 34.7957C74.5896 34.5706 74.6143 34.3082 74.5406 34.065C74.4607 33.8204 74.2874 33.6173 74.0584 33.5C73.8294 33.3827 73.5633 33.3607 73.3181 33.4387C71.3062 34.0823 69.5765 35.3976 68.4187 37.1644C67.4248 36.5779 66.5855 35.7622 65.971 34.7853C65.3564 33.8084 64.9845 32.6986 64.8862 31.5487C65.8665 31.0924 66.7594 30.4679 67.5244 29.7037C67.6865 29.5198 67.7725 29.2809 67.7647 29.0358C67.7569 28.7907 67.6559 28.5578 67.4824 28.3845C67.3089 28.2112 67.0758 28.1106 66.8307 28.1031C66.5856 28.0957 66.3469 28.1819 66.1631 28.3444C65.3887 29.1187 64.4962 29.6775 63.5212 30.0281L63.4987 30.0337C62.2879 30.4741 60.9813 30.5827 59.7144 30.3483C58.4475 30.1139 57.2663 29.545 56.2931 28.7006C56.4143 28.1052 56.4746 27.4989 56.4731 26.8912C56.4731 26.3662 56.0475 25.9275 55.5019 25.9275C54.9862 25.9275 54.5494 26.3662 54.5494 26.8912C54.5482 28.6582 53.9024 30.364 52.7333 31.6889C51.5641 33.0137 49.9518 33.8666 48.1987 34.0875C47.9697 32.0213 47.0447 30.0945 45.5756 28.6237C45.3942 28.4427 45.1484 28.341 44.8922 28.341C44.6359 28.341 44.3901 28.4427 44.2087 28.6237C44.032 28.8051 43.9331 29.0483 43.9331 29.3015C43.9331 29.5548 44.032 29.798 44.2087 29.9794C45.3493 31.1185 46.0749 32.6072 46.2694 34.2075C44.7956 34.3731 43.384 34.8936 42.1554 35.7244C40.9269 36.5551 39.9182 37.6714 39.2156 38.9775C37.5199 38.748 35.9589 37.9297 34.8056 36.6656C34.7203 36.5727 34.6175 36.4974 34.5031 36.4442C34.3887 36.391 34.265 36.3608 34.1389 36.3554C34.0129 36.35 33.887 36.3695 33.7684 36.4127C33.6499 36.456 33.5411 36.5222 33.4481 36.6075C33.3552 36.6928 33.2799 36.7956 33.2267 36.91C33.1735 37.0244 33.1433 37.1481 33.1379 37.2742C33.1325 37.4003 33.152 37.5261 33.1952 37.6447C33.2385 37.7632 33.3047 37.872 33.39 37.965C34.731 39.4383 36.5153 40.4349 38.4731 40.8037C38.2406 41.6006 38.1112 42.4481 38.1112 43.32C38.1112 43.3331 38.1225 43.3425 38.1225 43.3519C38.1 45.2812 38.5875 46.8862 39.465 48.2344C37.69 49.0312 36.2163 50.3747 35.2594 52.0687H35.2519C35.1892 52.179 35.1491 52.3006 35.1341 52.4265C35.119 52.5524 35.1293 52.6801 35.1642 52.802C35.1991 52.9239 35.258 53.0376 35.3375 53.1364C35.4169 53.2352 35.5153 53.3172 35.6269 53.3775C35.7695 53.4611 35.9321 53.5045 36.0975 53.5031C36.267 53.5013 36.4332 53.4558 36.58 53.3711C36.7268 53.2864 36.8493 53.1652 36.9356 53.0194C37.7823 51.5083 39.1478 50.3553 40.7794 49.7737C41.4105 50.3589 42.1077 50.8686 42.8569 51.2925C44.9737 52.56 45.9825 54.615 46.005 57.825V68.1225H42.5644C41.8875 63.6844 39.6619 59.9831 35.94 57.8156V57.7837C34.4106 57.1267 33.0898 56.0641 32.1205 54.7109C31.1513 53.3576 30.5704 51.7651 30.4406 50.1056C28.8409 48.4175 27.9497 46.1801 27.9506 43.8544C27.9506 41.7731 28.6537 39.8587 29.82 38.3212C29.2021 36.0316 29.5002 33.5914 30.6511 31.5179C31.802 29.4444 33.7151 27.9006 35.985 27.2137L35.9887 27.2231ZM51.2175 70.0575V74.6025H42.8156V71.0606C42.8156 70.7194 42.78 70.3894 42.7631 70.0575H51.2175Z" fill="#1473B5"/>
</svg>
