<svg width="120" height="120" viewBox="0 0 120 120" fill="none" xmlns="http://www.w3.org/2000/svg">
<path d="M104.342 0.673096H16.6181C8.02686 0.673096 1.03311 7.66872 1.03311 16.2656V103.982C1.03311 112.581 8.02499 119.572 16.6181 119.572H104.342C112.937 119.572 119.932 112.581 119.932 103.982V16.2656C119.932 7.66872 112.937 0.673096 104.342 0.673096ZM88.3894 36.8662C89.3081 36.8662 90.1892 37.2312 90.8388 37.8808C91.4885 38.5305 91.8534 39.4116 91.8534 40.3303C91.8534 41.249 91.4885 42.1301 90.8388 42.7797C90.1892 43.4294 89.3081 43.7943 88.3894 43.7943C87.4706 43.7943 86.5895 43.4294 85.9399 42.7797C85.2903 42.1301 84.9253 41.249 84.9253 40.3303C84.9253 39.4116 85.2903 38.5305 85.9399 37.8808C86.5895 37.2312 87.4706 36.8662 88.3894 36.8662ZM63.8587 14.8256C65.1681 14.8271 66.4234 15.3479 67.3493 16.2738C68.2752 17.1996 68.796 18.455 68.7975 19.7643C68.7975 20.7411 68.5078 21.696 67.9652 22.5082C67.4225 23.3203 66.6512 23.9534 65.7487 24.3272C64.8463 24.701 63.8533 24.7988 62.8952 24.6082C61.9372 24.4176 61.0572 23.9473 60.3665 23.2566C59.6758 22.5659 59.2054 21.6859 59.0149 20.7278C58.8243 19.7698 58.9221 18.7768 59.2959 17.8744C59.6697 16.9719 60.3027 16.2006 61.1149 15.6579C61.9271 15.1152 62.8819 14.8256 63.8587 14.8256ZM37.0687 14.7918C39.8362 14.7918 42.0806 17.0175 42.0806 19.7625C42.0782 20.4181 41.9466 21.0668 41.6933 21.6716C41.4401 22.2763 41.0702 22.8252 40.6048 23.287C40.1394 23.7488 39.5875 24.1143 38.9808 24.3628C38.3741 24.6112 37.7244 24.7377 37.0687 24.735C36.4131 24.7379 35.7634 24.6116 35.1567 24.3632C34.5499 24.1148 33.9981 23.7493 33.5328 23.2874C33.0675 22.8256 32.6978 22.2766 32.4448 21.6717C32.1919 21.0669 32.0607 20.4181 32.0587 19.7625C32.0609 19.107 32.1923 18.4584 32.4454 17.8538C32.6984 17.2492 33.0682 16.7004 33.5335 16.2387C33.9987 15.7771 34.5505 15.4117 35.1571 15.1634C35.7637 14.9151 36.4133 14.7889 37.0687 14.7918ZM22.0387 45.3262L25.9856 31.5787C27.5606 26.0887 32.1619 26.2575 32.1619 26.2575H41.9644C41.9644 26.2575 46.56 26.0887 48.1406 31.5787L50.07 38.2968L51.9994 31.5787C53.5762 26.0887 58.1756 26.2575 58.1756 26.2575H70.845C70.845 26.2575 75.4481 26.0887 77.025 31.5787L80.9362 45.2231C80.9362 45.2231 84.0187 45.5043 84.0619 45.5043H93.4087C95.8594 45.5043 98.0137 47.4956 98.0137 49.9462V58.7043C98.0162 58.9028 97.9794 59.0997 97.9054 59.2838C97.8314 59.468 97.7217 59.6356 97.5826 59.7771C97.4435 59.9187 97.2778 60.0313 97.095 60.1085C96.9122 60.1856 96.7159 60.2259 96.5175 60.2268C96.1148 60.2249 95.7293 60.0636 95.4451 59.7784C95.1609 59.4931 95.0011 59.107 95.0006 58.7043V51.0056H93.4369V73.7156C93.4369 74.8387 92.5144 75.7518 91.3912 75.7518C90.2681 75.7518 89.3587 74.8387 89.3587 73.7156V61.5693H87.765V73.7156C87.7425 74.2405 87.5181 74.7365 87.1387 75.0999C86.7593 75.4634 86.2542 75.6663 85.7287 75.6663C85.2033 75.6663 84.6982 75.4634 84.3188 75.0999C83.9394 74.7365 83.715 74.2405 83.6925 73.7156V49.4025C81.7031 48.8343 79.0031 48.0712 78.42 47.9381C78.3937 47.9343 78.3787 47.9156 78.3525 47.9081C77.6906 47.7431 77.1375 47.3081 76.9425 46.6462L73.2619 33.2475L71.3887 33.2437V72.4443C71.3887 74.0437 70.0762 75.3412 68.4731 75.3412C67.7055 75.3402 66.9696 75.0346 66.4271 74.4914C65.8847 73.9483 65.58 73.212 65.58 72.4443V50.1412H63.4387V72.4443C63.4387 74.0437 62.1431 75.3412 60.5419 75.3412C59.7722 75.3417 59.0337 75.0371 58.4883 74.4941C57.9428 73.9511 57.6348 73.214 57.6319 72.4443V33.2437L55.9069 33.2475L52.1269 46.4456C52.0686 46.6938 51.9587 46.927 51.8044 47.13C51.4331 47.685 50.7881 47.9943 50.0662 47.9718C49.3406 47.9943 48.6919 47.6775 48.3187 47.1206C48.1831 46.9362 48.0827 46.7283 48.0225 46.5075L44.2256 33.2475L42.3581 33.2437L47.9119 56.445H43.0387V72.9225C43.0387 74.2818 41.9325 75.3843 40.5712 75.3843C40.2484 75.3839 39.9289 75.3198 39.6308 75.1958C39.3328 75.0718 39.0621 74.8903 38.8342 74.6617C38.6063 74.4331 38.4256 74.1619 38.3025 73.8634C38.1795 73.565 38.1164 73.2453 38.1169 72.9225V56.4431H36.0394V72.9225C36.0394 74.2818 34.9294 75.3843 33.5719 75.3843C33.249 75.3841 32.9293 75.3202 32.6312 75.1963C32.333 75.0724 32.0622 74.8909 31.8343 74.6623C31.6063 74.4336 31.4256 74.1623 31.3027 73.8637C31.1797 73.5652 31.1167 73.2453 31.1175 72.9225V56.445H26.16L31.7681 33.2437L29.895 33.2475L26.0531 46.6462C25.7625 47.6718 24.615 48.24 23.4919 47.9175C22.3669 47.5912 21.6637 46.6143 22.0387 45.3262ZM23.3456 103.404C20.94 103.404 18.6469 102.801 16.4269 101.82V98.7075C18.6806 99.8587 20.9681 100.581 23.3456 100.581C28.5056 100.581 33.2475 97.4812 38.1037 93.7162C38.6775 94.17 39.2456 94.6106 39.8231 95.07C40.0087 95.2218 40.2 95.37 40.3875 95.5181C35.0944 99.6525 29.5725 103.401 23.3456 103.401V103.404ZM60.4462 103.404C53.2669 103.404 47.0287 98.4281 40.9987 93.6168C38.25 91.4231 35.5706 89.2912 32.8706 87.6337V95.1712C31.9256 95.79 30.9844 96.3581 30.045 96.8456V86.3081C30.045 86.2368 30.0731 86.1768 30.0844 86.1112C28.3294 85.2862 26.5519 84.7275 24.7294 84.5306V98.6062C24.2603 98.6727 23.7874 98.7084 23.3137 98.7131C22.8431 98.7131 22.3725 98.6681 21.9037 98.6062L21.9056 84.5231C20.0381 84.7106 18.2231 85.2656 16.4287 86.0625V83.0137C18.6412 82.1531 20.925 81.6206 23.3175 81.6206C30.4931 81.6206 36.7275 86.5968 42.7594 91.41C45.5212 93.6131 48.21 95.7506 50.9231 97.4118V89.8387C51.8644 89.22 52.8075 88.6481 53.7487 88.1681V98.7225C53.7487 98.7975 53.7169 98.8612 53.7075 98.9325C55.4625 99.7556 57.2419 100.311 59.07 100.504V86.4337C59.5181 86.3793 59.9681 86.3306 60.4181 86.3306C60.9112 86.3306 61.4025 86.3756 61.8956 86.4431V100.477C63.7144 100.277 65.4919 99.7087 67.2431 98.8837C67.2356 98.8293 67.2094 98.7806 67.2094 98.7225V88.2375C68.1487 88.725 69.09 89.2931 70.035 89.9156V97.38C71.76 96.3187 73.4756 95.0775 75.2081 93.7387C75.7725 94.1868 76.3331 94.6218 76.9087 95.0775L77.4937 95.5425C72.195 99.6712 66.6694 103.41 60.4481 103.41L60.4462 103.404ZM104.572 101.891C102.341 102.827 100.031 103.404 97.6125 103.404C91.3687 103.404 85.8337 99.6375 80.5294 95.49C79.74 94.8712 78.9525 94.2412 78.1687 93.6206C77.1787 92.8275 76.1944 92.0437 75.2156 91.2881C70.3669 87.5343 65.6362 84.4425 60.4856 84.4425C55.3162 84.4425 50.5706 87.5493 45.7069 91.32C45.1162 90.855 44.5331 90.3993 43.9369 89.9268L43.4231 89.52C48.315 85.695 53.4094 82.2375 59.0719 81.7237C59.5406 81.6806 60.0075 81.6206 60.4837 81.6206C60.9581 81.6206 61.4287 81.6468 61.8956 81.6881C67.5431 82.1943 72.6169 85.6706 77.4975 89.4843C78.3112 90.12 79.1231 90.7687 79.9294 91.41C80.9006 92.1843 81.8587 92.9493 82.8112 93.6881C87.6881 97.4681 92.4394 100.584 97.6125 100.584C100.005 100.584 102.309 99.9 104.572 98.8106V101.891ZM104.572 86.1918C102.767 85.3275 100.937 84.7312 99.0562 84.5268V98.58C98.5538 98.6524 98.047 98.6913 97.5394 98.6962C97.1006 98.6962 96.6656 98.6475 96.2306 98.5968V84.5475C94.4212 84.7425 92.6531 85.2993 90.9112 86.1112V96.8812C89.9405 96.3761 88.9973 95.8197 88.0856 95.2143V87.63C86.3287 88.7025 84.5756 89.9775 82.8131 91.3425C82.2169 90.87 81.6206 90.4106 81.015 89.9268L80.5275 89.5406C85.8469 85.3893 91.3931 81.6225 97.6406 81.6206C100.046 81.6206 102.347 82.1906 104.569 83.1168V86.1937L104.572 86.1918Z" fill="#1473B5"/>
</svg>
