<svg width="48" height="44" viewBox="0 0 48 44" fill="none" xmlns="http://www.w3.org/2000/svg">
<path d="M21.8617 1.4264C22.6527 -0.475469 25.3469 -0.475466 26.1379 1.4264L30.8067 12.6516C31.1402 13.4534 31.8942 14.0012 32.7598 14.0706L44.8784 15.0421C46.9316 15.2067 47.7641 17.7691 46.1998 19.1091L36.9668 27.0182C36.3073 27.5831 36.0193 28.4695 36.2207 29.3142L39.0416 41.1398C39.5195 43.1434 37.3399 44.727 35.582 43.6533L25.2069 37.3162C24.4658 36.8636 23.5338 36.8636 22.7927 37.3162L12.4176 43.6533C10.6597 44.727 8.48007 43.1434 8.958 41.1398L11.7788 29.3142C11.9803 28.4695 11.6923 27.5831 11.0328 27.0182L1.79979 19.1091C0.235445 17.7691 1.068 15.2067 3.12123 15.0421L15.2398 14.0706C16.1053 14.0012 16.8594 13.4534 17.1928 12.6516L21.8617 1.4264Z" fill="#CFCFCF"/>
</svg>
