<svg width="54" height="50" viewBox="0 0 54 50" fill="none" xmlns="http://www.w3.org/2000/svg">
<path d="M24.5705 1.62091C25.4694 -0.540306 28.531 -0.540302 29.4299 1.62091L34.7353 14.3768C35.1143 15.2879 35.9711 15.9104 36.9548 15.9893L50.7258 17.0933C53.059 17.2804 54.0051 20.1921 52.2274 21.7149L41.7354 30.7025C40.9859 31.3444 40.6587 32.3517 40.8876 33.3116L44.0931 46.7498C44.6362 49.0266 42.1593 50.8262 40.1618 49.6061L28.3718 42.4048C27.5297 41.8904 26.4706 41.8904 25.6285 42.4048L13.8385 49.6061C11.841 50.8262 9.36411 49.0266 9.90722 46.7498L13.1127 33.3115C13.3417 32.3517 13.0144 31.3444 12.265 30.7025L1.77289 21.7149C-0.00477609 20.1921 0.941314 17.2804 3.27453 17.0933L17.0456 15.9893C18.0292 15.9104 18.886 15.2879 19.265 14.3768L24.5705 1.62091Z" fill="#CFCFCF"/>
</svg>
