<svg width="58" height="261" viewBox="0 0 58 261" fill="none" xmlns="http://www.w3.org/2000/svg">
<path fill-rule="evenodd" clip-rule="evenodd" d="M54.8465 205.376C53.4658 205.376 52.3465 204.257 52.3465 202.876V202.399C52.3465 201.018 53.4658 199.899 54.8465 199.899C56.2272 199.899 57.3465 201.018 57.3465 202.399V202.876C57.3465 204.257 56.2272 205.376 54.8465 205.376ZM54.8465 185.818C53.4658 185.818 52.3465 184.699 52.3465 183.318V182.364C52.3465 180.983 53.4658 179.864 54.8465 179.864C56.2272 179.864 57.3465 180.983 57.3465 182.364V183.318C57.3465 184.699 56.2272 185.818 54.8465 185.818ZM54.8465 165.783C53.4658 165.783 52.3465 164.663 52.3465 163.283V162.329C52.3465 160.948 53.4658 159.829 54.8465 159.829C56.2272 159.829 57.3465 160.948 57.3465 162.329V163.283C57.3465 164.663 56.2272 165.783 54.8465 165.783ZM54.8465 145.748C53.4658 145.748 52.3465 144.628 52.3465 143.248V142.294C52.3465 140.913 53.4658 139.794 54.8465 139.794C56.2272 139.794 57.3465 140.913 57.3465 142.294V143.248C57.3465 144.628 56.2272 145.748 54.8465 145.748ZM54.8465 125.712C53.4658 125.712 52.3465 124.593 52.3465 123.212V122.258C52.3465 120.878 53.4658 119.758 54.8465 119.758C56.2272 119.758 57.3465 120.878 57.3465 122.258V123.212C57.3465 124.593 56.2272 125.712 54.8465 125.712ZM54.8465 105.677C53.4658 105.677 52.3465 104.558 52.3465 103.177V102.223C52.3465 100.842 53.4658 99.7231 54.8465 99.7231C56.2272 99.7231 57.3465 100.842 57.3465 102.223V103.177C57.3465 104.558 56.2272 105.677 54.8465 105.677ZM54.8465 85.642C53.4658 85.642 52.3465 84.5227 52.3465 83.142V82.1879C52.3465 80.8072 53.4658 79.6879 54.8465 79.6879C56.2272 79.6879 57.3465 80.8072 57.3465 82.1879V83.142C57.3465 84.5227 56.2272 85.642 54.8465 85.642ZM54.8465 65.6068C53.4658 65.6068 52.3465 64.4875 52.3465 63.1068V62.1527C52.3465 60.772 53.4658 59.6527 54.8465 59.6527C56.2272 59.6527 57.3465 60.772 57.3465 62.1527V63.1068C57.3465 64.4875 56.2272 65.6068 54.8465 65.6068ZM54.8465 45.5716C53.4658 45.5716 52.3465 44.4523 52.3465 43.0716V42.1175C52.3465 40.7368 53.4658 39.6175 54.8465 39.6175C56.2272 39.6175 57.3465 40.7368 57.3465 42.1175V43.0716C57.3465 44.4523 56.2272 45.5716 54.8465 45.5716ZM54.8465 25.5364C53.4658 25.5364 52.3465 24.4171 52.3465 23.0364V22.0823C52.3465 20.7016 53.4658 19.5823 54.8465 19.5823C56.2272 19.5823 57.3465 20.7016 57.3465 22.0823V23.0364C57.3465 24.4171 56.2272 25.5364 54.8465 25.5364ZM54.8465 5.50117C53.4658 5.50117 52.3465 4.3819 52.3465 3.00117V2.52417C52.3465 1.14345 53.4658 0.0241699 54.8465 0.0241699C56.2272 0.0241699 57.3465 1.14345 57.3465 2.52417V3.00117C57.3465 4.3819 56.2272 5.50117 54.8465 5.50117ZM28.7015 233.684C27.3208 233.684 26.2015 232.565 26.2015 231.184V230.707C26.2015 229.326 27.3208 228.207 28.7015 228.207C30.0822 228.207 31.2015 229.326 31.2015 230.707V231.184C31.2015 232.565 30.0822 233.684 28.7015 233.684ZM28.7015 214.126C27.3208 214.126 26.2015 213.007 26.2015 211.626V210.672C26.2015 209.291 27.3208 208.172 28.7015 208.172C30.0822 208.172 31.2015 209.291 31.2015 210.672V211.626C31.2015 213.007 30.0822 214.126 28.7015 214.126ZM28.7015 194.091C27.3208 194.091 26.2015 192.972 26.2015 191.591V190.637C26.2015 189.256 27.3208 188.137 28.7015 188.137C30.0822 188.137 31.2015 189.256 31.2015 190.637V191.591C31.2015 192.972 30.0822 194.091 28.7015 194.091ZM28.7015 174.056C27.3208 174.056 26.2015 172.936 26.2015 171.556V170.602C26.2015 169.221 27.3208 168.102 28.7015 168.102C30.0822 168.102 31.2015 169.221 31.2015 170.602V171.556C31.2015 172.936 30.0822 174.056 28.7015 174.056ZM28.7015 154.02C27.3208 154.02 26.2015 152.901 26.2015 151.52V150.566C26.2015 149.186 27.3208 148.066 28.7015 148.066C30.0822 148.066 31.2015 149.186 31.2015 150.566V151.52C31.2015 152.901 30.0822 154.02 28.7015 154.02ZM28.7015 133.985C27.3208 133.985 26.2015 132.866 26.2015 131.485V130.531C26.2015 129.15 27.3208 128.031 28.7015 128.031C30.0822 128.031 31.2015 129.15 31.2015 130.531V131.485C31.2015 132.866 30.0822 133.985 28.7015 133.985ZM28.7015 113.95C27.3208 113.95 26.2015 112.831 26.2015 111.45V110.496C26.2015 109.115 27.3208 107.996 28.7015 107.996C30.0822 107.996 31.2015 109.115 31.2015 110.496V111.45C31.2015 112.831 30.0822 113.95 28.7015 113.95ZM28.7015 93.9148C27.3208 93.9148 26.2015 92.7955 26.2015 91.4148V90.4608C26.2015 89.0801 27.3208 87.9608 28.7015 87.9608C30.0822 87.9608 31.2015 89.0801 31.2015 90.4608V91.4148C31.2015 92.7955 30.0822 93.9148 28.7015 93.9148ZM28.7015 73.8796C27.3208 73.8796 26.2015 72.7603 26.2015 71.3796V70.4256C26.2015 69.0449 27.3208 67.9256 28.7015 67.9256C30.0822 67.9256 31.2015 69.0449 31.2015 70.4256V71.3796C31.2015 72.7603 30.0822 73.8796 28.7015 73.8796ZM28.7015 53.8444C27.3208 53.8444 26.2015 52.7251 26.2015 51.3444V50.3904C26.2015 49.0097 27.3208 47.8904 28.7015 47.8904C30.0822 47.8904 31.2015 49.0097 31.2015 50.3904V51.3444C31.2015 52.7251 30.0822 53.8444 28.7015 53.8444ZM28.7015 33.8092C27.3208 33.8092 26.2015 32.6899 26.2015 31.3092V30.8322C26.2015 29.4515 27.3208 28.3322 28.7015 28.3322C30.0822 28.3322 31.2015 29.4515 31.2015 30.8322V31.3092C31.2015 32.6899 30.0822 33.8092 28.7015 33.8092ZM0.547363 258.205C0.547363 259.586 1.66665 260.705 3.04736 260.705C4.42808 260.705 5.54736 259.586 5.54736 258.205V257.728C5.54736 256.348 4.42808 255.228 3.04736 255.228C1.66665 255.228 0.547363 256.348 0.547363 257.728V258.205ZM0.547363 238.647C0.547363 240.028 1.66665 241.147 3.04736 241.147C4.42808 241.147 5.54736 240.028 5.54736 238.647V237.693C5.54736 236.312 4.42808 235.193 3.04736 235.193C1.66665 235.193 0.547363 236.312 0.547363 237.693V238.647ZM0.547363 218.612C0.547363 219.993 1.66665 221.112 3.04736 221.112C4.42808 221.112 5.54736 219.993 5.54736 218.612V217.658C5.54736 216.277 4.42808 215.158 3.04736 215.158C1.66665 215.158 0.547363 216.277 0.547363 217.658V218.612ZM0.547363 198.577C0.547363 199.958 1.66665 201.077 3.04736 201.077C4.42808 201.077 5.54736 199.958 5.54736 198.577V197.623C5.54736 196.242 4.42808 195.123 3.04736 195.123C1.66665 195.123 0.547363 196.242 0.547363 197.623V198.577ZM0.547363 178.542C0.547363 179.922 1.66665 181.042 3.04736 181.042C4.42808 181.042 5.54736 179.922 5.54736 178.542V177.588C5.54736 176.207 4.42808 175.088 3.04736 175.088C1.66665 175.088 0.547363 176.207 0.547363 177.588V178.542ZM0.547363 158.507C0.547363 159.887 1.66665 161.007 3.04736 161.007C4.42808 161.007 5.54736 159.887 5.54736 158.507V157.552C5.54736 156.172 4.42808 155.052 3.04736 155.052C1.66665 155.052 0.547363 156.172 0.547363 157.552V158.507ZM0.547363 138.471C0.547363 139.852 1.66665 140.971 3.04736 140.971C4.42808 140.971 5.54736 139.852 5.54736 138.471V137.517C5.54736 136.137 4.42808 135.017 3.04736 135.017C1.66665 135.017 0.547363 136.137 0.547363 137.517V138.471ZM0.547363 118.436C0.547363 119.817 1.66665 120.936 3.04736 120.936C4.42808 120.936 5.54736 119.817 5.54736 118.436V117.482C5.54736 116.101 4.42808 114.982 3.04736 114.982C1.66665 114.982 0.547363 116.101 0.547363 117.482V118.436ZM0.547363 98.4009C0.547363 99.7816 1.66665 100.901 3.04736 100.901C4.42808 100.901 5.54736 99.7816 5.54736 98.4009V97.4468C5.54736 96.0661 4.42808 94.9468 3.04736 94.9468C1.66665 94.9468 0.547363 96.0661 0.547363 97.4468V98.4009ZM0.547363 78.3657C0.547363 79.7464 1.66665 80.8657 3.04736 80.8657C4.42808 80.8657 5.54736 79.7464 5.54736 78.3657V77.4116C5.54736 76.0309 4.42808 74.9116 3.04736 74.9116C1.66665 74.9116 0.547363 76.0309 0.547363 77.4116V78.3657ZM0.547363 58.3305C0.547363 59.7112 1.66665 60.8305 3.04736 60.8305C4.42808 60.8305 5.54736 59.7112 5.54736 58.3305V57.8535C5.54736 56.4727 4.42808 55.3535 3.04736 55.3535C1.66665 55.3535 0.547363 56.4727 0.547363 57.8535V58.3305Z" fill="#C0E0F7"/>
</svg>
