<svg width="52" height="232" viewBox="0 0 52 232" fill="none" xmlns="http://www.w3.org/2000/svg">
<path fill-rule="evenodd" clip-rule="evenodd" d="M49.2634 182.667C48.0352 182.667 47.0396 181.672 47.0396 180.443V180.019C47.0396 178.791 48.0352 177.795 49.2634 177.795C50.4916 177.795 51.4872 178.791 51.4872 180.019V180.443C51.4872 181.672 50.4916 182.667 49.2634 182.667ZM49.2634 165.27C48.0352 165.27 47.0396 164.274 47.0396 163.046V162.197C47.0396 160.969 48.0352 159.974 49.2634 159.974C50.4916 159.974 51.4872 160.969 51.4872 162.197V163.046C51.4872 164.274 50.4916 165.27 49.2634 165.27ZM49.2634 147.448C48.0352 147.448 47.0396 146.452 47.0396 145.224V144.376C47.0396 143.147 48.0352 142.152 49.2634 142.152C50.4916 142.152 51.4872 143.147 51.4872 144.376V145.224C51.4872 146.452 50.4916 147.448 49.2634 147.448ZM49.2634 129.626C48.0352 129.626 47.0396 128.631 47.0396 127.403V126.554C47.0396 125.326 48.0352 124.33 49.2634 124.33C50.4916 124.33 51.4872 125.326 51.4872 126.554V127.403C51.4872 128.631 50.4916 129.626 49.2634 129.626ZM49.2634 111.805C48.0352 111.805 47.0396 110.809 47.0396 109.581V108.732C47.0396 107.504 48.0352 106.508 49.2634 106.508C50.4916 106.508 51.4872 107.504 51.4872 108.732V109.581C51.4872 110.809 50.4916 111.805 49.2634 111.805ZM49.2634 93.9828C48.0352 93.9828 47.0396 92.9872 47.0396 91.759V90.9104C47.0396 89.6822 48.0352 88.6866 49.2634 88.6866C50.4916 88.6866 51.4872 89.6822 51.4872 90.9104V91.759C51.4872 92.9872 50.4916 93.9828 49.2634 93.9828ZM49.2634 76.1611C48.0352 76.1611 47.0396 75.1655 47.0396 73.9373V73.0886C47.0396 71.8605 48.0352 70.8648 49.2634 70.8648C50.4916 70.8648 51.4872 71.8605 51.4872 73.0886V73.9373C51.4872 75.1655 50.4916 76.1611 49.2634 76.1611ZM49.2634 58.3393C48.0352 58.3393 47.0396 57.3437 47.0396 56.1155V55.2669C47.0396 54.0387 48.0352 53.0431 49.2634 53.0431C50.4916 53.0431 51.4872 54.0387 51.4872 55.2669V56.1155C51.4872 57.3437 50.4916 58.3393 49.2634 58.3393ZM49.2634 40.5176C48.0352 40.5176 47.0396 39.522 47.0396 38.2938V37.4451C47.0396 36.217 48.0352 35.2213 49.2634 35.2213C50.4916 35.2213 51.4872 36.217 51.4872 37.4451V38.2938C51.4872 39.522 50.4916 40.5176 49.2634 40.5176ZM49.2634 22.6959C48.0352 22.6959 47.0396 21.7002 47.0396 20.4721V19.6234C47.0396 18.3952 48.0352 17.3996 49.2634 17.3996C50.4916 17.3996 51.4872 18.3952 51.4872 19.6234V20.4721C51.4872 21.7002 50.4916 22.6959 49.2634 22.6959ZM49.2634 4.87413C48.0352 4.87413 47.0396 3.87851 47.0396 2.65033V2.226C47.0396 0.997833 48.0352 0.00219727 49.2634 0.00219727C50.4916 0.00219727 51.4872 0.997833 51.4872 2.226V2.65033C51.4872 3.87851 50.4916 4.87413 49.2634 4.87413ZM26.0068 207.848C24.7787 207.848 23.783 206.852 23.783 205.624V205.2C23.783 203.972 24.7787 202.976 26.0068 202.976C27.235 202.976 28.2306 203.972 28.2306 205.2V205.624C28.2306 206.852 27.235 207.848 26.0068 207.848ZM26.0068 190.45C24.7787 190.45 23.783 189.455 23.783 188.227V187.378C23.783 186.15 24.7787 185.154 26.0068 185.154C27.235 185.154 28.2306 186.15 28.2306 187.378V188.227C28.2306 189.455 27.235 190.45 26.0068 190.45ZM26.0068 172.629C24.7787 172.629 23.783 171.633 23.783 170.405V169.556C23.783 168.328 24.7787 167.332 26.0068 167.332C27.235 167.332 28.2306 168.328 28.2306 169.556V170.405C28.2306 171.633 27.235 172.629 26.0068 172.629ZM26.0068 154.807C24.7787 154.807 23.783 153.811 23.783 152.583V151.735C23.783 150.506 24.7787 149.511 26.0068 149.511C27.235 149.511 28.2306 150.506 28.2306 151.735V152.583C28.2306 153.811 27.235 154.807 26.0068 154.807ZM26.0068 136.985C24.7787 136.985 23.783 135.99 23.783 134.761V133.913C23.783 132.685 24.7787 131.689 26.0068 131.689C27.235 131.689 28.2306 132.685 28.2306 133.913V134.761C28.2306 135.99 27.235 136.985 26.0068 136.985ZM26.0068 119.164C24.7787 119.164 23.783 118.168 23.783 116.94V116.091C23.783 114.863 24.7787 113.867 26.0068 113.867C27.235 113.867 28.2306 114.863 28.2306 116.091V116.94C28.2306 118.168 27.235 119.164 26.0068 119.164ZM26.0068 101.342C24.7787 101.342 23.783 100.346 23.783 99.118V98.2693C23.783 97.0411 24.7787 96.0455 26.0068 96.0455C27.235 96.0455 28.2306 97.0411 28.2306 98.2693V99.118C28.2306 100.346 27.235 101.342 26.0068 101.342ZM26.0068 83.52C24.7787 83.52 23.783 82.5244 23.783 81.2962V80.4476C23.783 79.2194 24.7787 78.2238 26.0068 78.2238C27.235 78.2238 28.2306 79.2194 28.2306 80.4476V81.2962C28.2306 82.5244 27.235 83.52 26.0068 83.52ZM26.0068 65.6983C24.7787 65.6983 23.783 64.7027 23.783 63.4745V62.6258C23.783 61.3976 24.7787 60.402 26.0068 60.402C27.235 60.402 28.2306 61.3976 28.2306 62.6258V63.4745C28.2306 64.7027 27.235 65.6983 26.0068 65.6983ZM26.0068 47.8766C24.7787 47.8766 23.783 46.8809 23.783 45.6528V44.8041C23.783 43.5759 24.7787 42.5803 26.0068 42.5803C27.235 42.5803 28.2306 43.5759 28.2306 44.8041V45.6528C28.2306 46.8809 27.235 47.8766 26.0068 47.8766ZM26.0068 30.0548C24.7787 30.0548 23.783 29.0592 23.783 27.831V27.4067C23.783 26.1785 24.7787 25.1829 26.0068 25.1829C27.235 25.1829 28.2306 26.1785 28.2306 27.4067V27.831C28.2306 29.0592 27.235 30.0548 26.0068 30.0548ZM0.962982 229.66C0.962982 230.888 1.95861 231.884 3.18679 231.884C4.41496 231.884 5.41059 230.888 5.41059 229.66V229.236C5.41059 228.008 4.41496 227.012 3.18679 227.012C1.95861 227.012 0.962982 228.008 0.962982 229.236V229.66ZM0.962982 212.263C0.962982 213.491 1.95861 214.486 3.18679 214.486C4.41496 214.486 5.41059 213.491 5.41059 212.263V211.414C5.41059 210.186 4.41496 209.19 3.18679 209.19C1.95861 209.19 0.962982 210.186 0.962982 211.414V212.263ZM0.962982 194.441C0.962982 195.669 1.95861 196.665 3.18679 196.665C4.41496 196.665 5.41059 195.669 5.41059 194.441V193.592C5.41059 192.364 4.41496 191.368 3.18679 191.368C1.95861 191.368 0.962982 192.364 0.962982 193.592V194.441ZM0.962982 176.619C0.962982 177.847 1.95861 178.843 3.18679 178.843C4.41496 178.843 5.41059 177.847 5.41059 176.619V175.771C5.41059 174.542 4.41496 173.547 3.18679 173.547C1.95861 173.547 0.962982 174.542 0.962982 175.771V176.619ZM0.962982 158.797C0.962982 160.026 1.95861 161.021 3.18679 161.021C4.41496 161.021 5.41059 160.026 5.41059 158.797V157.949C5.41059 156.721 4.41496 155.725 3.18679 155.725C1.95861 155.725 0.962982 156.721 0.962982 157.949V158.797ZM0.962982 140.976C0.962982 142.204 1.95861 143.2 3.18679 143.2C4.41496 143.2 5.41059 142.204 5.41059 140.976V140.127C5.41059 138.899 4.41496 137.903 3.18679 137.903C1.95861 137.903 0.962982 138.899 0.962982 140.127V140.976ZM0.962982 123.154C0.962982 124.382 1.95861 125.378 3.18679 125.378C4.41496 125.378 5.41059 124.382 5.41059 123.154V122.305C5.41059 121.077 4.41496 120.081 3.18679 120.081C1.95861 120.081 0.962982 121.077 0.962982 122.305V123.154ZM0.962982 105.332C0.962982 106.56 1.95861 107.556 3.18679 107.556C4.41496 107.556 5.41059 106.56 5.41059 105.332V104.484C5.41059 103.255 4.41496 102.26 3.18679 102.26C1.95861 102.26 0.962982 103.255 0.962982 104.484V105.332ZM0.962982 87.5105C0.962982 88.7386 1.95861 89.7343 3.18679 89.7343C4.41496 89.7343 5.41059 88.7386 5.41059 87.5105V86.6618C5.41059 85.4336 4.41496 84.438 3.18679 84.438C1.95861 84.438 0.962982 85.4336 0.962982 86.6618V87.5105ZM0.962982 69.6887C0.962982 70.9169 1.95861 71.9125 3.18679 71.9125C4.41496 71.9125 5.41059 70.9169 5.41059 69.6887V68.8401C5.41059 67.6119 4.41496 66.6163 3.18679 66.6163C1.95861 66.6163 0.962982 67.6119 0.962982 68.8401V69.6887ZM0.962982 51.867C0.962982 53.0952 1.95861 54.0908 3.18679 54.0908C4.41496 54.0908 5.41059 53.0952 5.41059 51.867V51.4427C5.41059 50.2145 4.41496 49.2189 3.18679 49.2189C1.95861 49.2189 0.962982 50.2145 0.962982 51.4427V51.867Z" fill="#C0E0F7"/>
</svg>
