<svg width="20" height="21" viewBox="0 0 20 21" fill="none" xmlns="http://www.w3.org/2000/svg">
<path d="M17.5808 7.41409L12.6968 6.70428L10.5135 2.27808C10.4539 2.15689 10.3558 2.05879 10.2346 1.99915C9.93068 1.84911 9.56135 1.97415 9.40939 2.27808L7.2261 6.70428L2.34208 7.41409C2.20743 7.43332 2.08432 7.4968 1.99006 7.59298C1.87611 7.7101 1.81332 7.86767 1.81548 8.03107C1.81765 8.19446 1.88459 8.35031 2.0016 8.46437L5.53526 11.9095L4.70041 16.7743C4.68084 16.8875 4.69336 17.0039 4.73656 17.1103C4.77977 17.2167 4.85192 17.3089 4.94484 17.3764C5.03777 17.4439 5.14774 17.484 5.2623 17.4921C5.37685 17.5003 5.49141 17.4762 5.59296 17.4226L9.96146 15.1258L14.33 17.4226C14.4492 17.4861 14.5877 17.5072 14.7204 17.4841C15.0552 17.4264 15.2802 17.109 15.2225 16.7743L14.3877 11.9095L17.9213 8.46437C18.0175 8.37012 18.081 8.24701 18.1002 8.11236C18.1521 7.77573 17.9175 7.4641 17.5808 7.41409V7.41409Z" fill="#D8D8DD"/>
<mask id="mask0_2_2024" style="mask-type:alpha" maskUnits="userSpaceOnUse" x="1" y="1" width="18" height="17">
<path d="M17.5813 7.41409L12.6973 6.70428L10.514 2.27808C10.4544 2.15689 10.3563 2.05879 10.2351 1.99915C9.93117 1.84911 9.56184 1.97415 9.40988 2.27808L7.22659 6.70428L2.34257 7.41409C2.20792 7.43332 2.08481 7.4968 1.99055 7.59298C1.8766 7.7101 1.81381 7.86767 1.81597 8.03107C1.81814 8.19446 1.88508 8.35031 2.00209 8.46437L5.53575 11.9095L4.7009 16.7743C4.68133 16.8875 4.69385 17.0039 4.73705 17.1103C4.78025 17.2167 4.85241 17.3089 4.94533 17.3764C5.03826 17.4439 5.14823 17.484 5.26279 17.4921C5.37734 17.5003 5.49189 17.4762 5.59345 17.4226L9.96195 15.1258L14.3304 17.4226C14.4497 17.4861 14.5882 17.5072 14.7209 17.4841C15.0556 17.4264 15.2807 17.109 15.223 16.7743L14.3882 11.9095L17.9218 8.46437C18.018 8.37012 18.0815 8.24701 18.1007 8.11236C18.1526 7.77573 17.918 7.4641 17.5813 7.41409Z" fill="#F4CD0C"/>
</mask>
<g mask="url(#mask0_2_2024)">
<rect x="-11.7051" y="0.621826" width="86.6697" height="98.4883" fill="#F4B30C"/>
</g>
</svg>
