<svg width="20" height="21" viewBox="0 0 20 21" fill="none" xmlns="http://www.w3.org/2000/svg">
<path d="M17.6909 7.41409L12.8069 6.70428L10.6236 2.27808C10.564 2.15689 10.4659 2.05879 10.3447 1.99915C10.0408 1.84911 9.67146 1.97415 9.51949 2.27808L7.33621 6.70428L2.45219 7.41409C2.31754 7.43332 2.19443 7.4968 2.10017 7.59298C1.98622 7.7101 1.92343 7.86767 1.92559 8.03107C1.92776 8.19446 1.9947 8.35031 2.11171 8.46437L5.64536 11.9095L4.81052 16.7743C4.79094 16.8875 4.80347 17.0039 4.84667 17.1103C4.88987 17.2167 4.96203 17.3089 5.05495 17.3764C5.14787 17.4439 5.25785 17.484 5.3724 17.4921C5.48696 17.5003 5.60151 17.4762 5.70307 17.4226L10.0716 15.1258L14.4401 17.4226C14.5593 17.4861 14.6978 17.5072 14.8306 17.4841C15.1653 17.4264 15.3903 17.109 15.3326 16.7743L14.4978 11.9095L18.0314 8.46437C18.1276 8.37012 18.1911 8.24701 18.2103 8.11236C18.2623 7.77573 18.0276 7.4641 17.6909 7.41409V7.41409Z" fill="#D8D8DD"/>
<mask id="mask0_2_2023" style="mask-type:alpha" maskUnits="userSpaceOnUse" x="1" y="1" width="18" height="17">
<path d="M17.6909 7.41409L12.8069 6.70428L10.6236 2.27808C10.564 2.15689 10.4659 2.05879 10.3447 1.99915C10.0408 1.84911 9.67146 1.97415 9.51949 2.27808L7.33621 6.70428L2.45219 7.41409C2.31754 7.43332 2.19443 7.4968 2.10017 7.59298C1.98622 7.7101 1.92343 7.86767 1.92559 8.03107C1.92776 8.19446 1.9947 8.35031 2.11171 8.46437L5.64536 11.9095L4.81052 16.7743C4.79094 16.8875 4.80347 17.0039 4.84667 17.1103C4.88987 17.2167 4.96203 17.3089 5.05495 17.3764C5.14787 17.4439 5.25785 17.484 5.3724 17.4921C5.48696 17.5003 5.60151 17.4762 5.70307 17.4226L10.0716 15.1258L14.4401 17.4226C14.5593 17.4861 14.6978 17.5072 14.8306 17.4841C15.1653 17.4264 15.3903 17.109 15.3326 16.7743L14.4978 11.9095L18.0314 8.46437C18.1276 8.37012 18.1911 8.24701 18.2103 8.11236C18.2623 7.77573 18.0276 7.4641 17.6909 7.41409Z" fill="#F4CD0C"/>
</mask>
<g mask="url(#mask0_2_2023)">
<rect x="-11.5955" y="0.621826" width="86.6697" height="98.4883" fill="#F4B30C"/>
</g>
</svg>
