<svg width="161" height="32" viewBox="0 0 161 32" fill="none" xmlns="http://www.w3.org/2000/svg">
<path d="M23.5667 26.6666H10.2333C6.23332 26.6666 3.56665 24 3.56665 20V12C3.56665 7.99998 6.23332 5.33331 10.2333 5.33331H23.5667C27.5667 5.33331 30.2333 7.99998 30.2333 12V20C30.2333 24 27.5667 26.6666 23.5667 26.6666Z" stroke="white" stroke-width="1.5" stroke-miterlimit="10" stroke-linecap="round" stroke-linejoin="round"/>
<path d="M16.1 12.6667L19.4333 14.6667C20.6333 15.4667 20.6333 16.6667 19.4333 17.4667L16.1 19.4667C14.7666 20.2667 13.7 19.6 13.7 18.1333V14.1333C13.7 12.4 14.7666 11.8667 16.1 12.6667Z" stroke="white" stroke-width="1.5" stroke-miterlimit="10" stroke-linecap="round" stroke-linejoin="round"/>
<path d="M83.5666 12.4V16.2667H87.0332C87.2999 16.2667 87.4332 16.5333 87.4332 16.8L86.8999 19.3333C86.8999 19.4667 86.6332 19.6 86.4999 19.6H83.5666V29.3333H79.5666V19.7333H77.2999C77.0332 19.7333 76.8999 19.6 76.8999 19.3333V16.8C76.8999 16.5333 77.0332 16.4 77.2999 16.4H79.5666V12C79.5666 9.73333 81.2999 8 83.5666 8H87.1666C87.4332 8 87.5666 8.13333 87.5666 8.4V11.6C87.5666 11.8667 87.4332 12 87.1666 12H83.9666C83.6999 12 83.5666 12.1333 83.5666 12.4Z" stroke="white" stroke-width="1.5" stroke-miterlimit="10" stroke-linecap="round"/>
<path d="M84.9 29.3334H76.9C70.2333 29.3334 67.5667 26.6667 67.5667 20V12C67.5667 5.33335 70.2333 2.66669 76.9 2.66669H84.9C91.5667 2.66669 94.2333 5.33335 94.2333 12V20C94.2333 26.6667 91.5667 29.3334 84.9 29.3334Z" stroke="white" stroke-width="1.5" stroke-linecap="round" stroke-linejoin="round"/>
<path d="M138.1 27.4667C140.1 28.6667 142.5 29.3334 144.9 29.3334C152.233 29.3334 158.233 23.3334 158.233 16C158.233 8.66669 152.233 2.66669 144.9 2.66669C137.567 2.66669 131.567 8.66669 131.567 16C131.567 18.4 132.233 20.6667 133.3 22.6667L132.007 27.6393C131.812 28.3883 132.506 29.0651 133.25 28.8525L138.1 27.4667Z" stroke="white" stroke-width="1.5" stroke-miterlimit="10" stroke-linecap="round" stroke-linejoin="round"/>
<path d="M150.9 19.798C150.9 20.014 150.852 20.236 150.75 20.452C150.648 20.668 150.515 20.872 150.341 21.064C150.047 21.388 149.722 21.622 149.356 21.772C148.995 21.922 148.604 22 148.184 22C147.571 22 146.916 21.856 146.225 21.562C145.534 21.268 144.843 20.872 144.158 20.374C143.467 19.87 142.812 19.312 142.187 18.694C141.568 18.07 141.009 17.416 140.51 16.732C140.018 16.048 139.621 15.364 139.333 14.686C139.044 14.002 138.9 13.348 138.9 12.724C138.9 12.316 138.972 11.926 139.116 11.566C139.26 11.2 139.489 10.864 139.807 10.564C140.192 10.186 140.612 10 141.057 10C141.225 10 141.394 10.036 141.544 10.108C141.7 10.18 141.838 10.288 141.946 10.444L143.341 12.406C143.449 12.556 143.527 12.694 143.581 12.826C143.635 12.952 143.665 13.078 143.665 13.192C143.665 13.336 143.623 13.48 143.539 13.618C143.461 13.756 143.347 13.9 143.202 14.044L142.746 14.518C142.68 14.584 142.65 14.662 142.65 14.758C142.65 14.806 142.656 14.848 142.668 14.896C142.686 14.944 142.704 14.98 142.716 15.016C142.824 15.214 143.01 15.472 143.274 15.784C143.545 16.096 143.833 16.414 144.146 16.732C144.47 17.05 144.783 17.344 145.101 17.614C145.414 17.878 145.672 18.058 145.876 18.166C145.906 18.178 145.942 18.196 145.985 18.214C146.033 18.232 146.081 18.238 146.135 18.238C146.237 18.238 146.315 18.202 146.381 18.136L146.838 17.686C146.988 17.536 147.132 17.422 147.27 17.35C147.409 17.266 147.547 17.224 147.697 17.224C147.811 17.224 147.931 17.248 148.064 17.302C148.196 17.356 148.334 17.434 148.484 17.536L150.473 18.946C150.629 19.054 150.738 19.18 150.804 19.33C150.864 19.48 150.9 19.63 150.9 19.798Z" stroke="white" stroke-width="1.5" stroke-miterlimit="10"/>
</svg>
