<svg width="40" height="41" viewBox="0 0 40 41" fill="none" xmlns="http://www.w3.org/2000/svg">
<g clip-path="url(#clip0_2_2091)">
<path d="M25.1762 4.02466C26.0469 4.02466 26.8819 4.37054 27.4976 4.98621C28.1132 5.60188 28.4591 6.43691 28.4591 7.3076V15.515H31.7421C32.6128 15.515 33.4478 15.8608 34.0635 16.4765C34.6791 17.0922 35.025 17.9272 35.025 18.7979V35.0485C35.025 35.2856 34.9783 35.5204 34.8876 35.7395C34.7968 35.9585 34.6638 36.1576 34.4962 36.3252C34.3285 36.4929 34.1294 36.6259 33.9104 36.7166C33.6913 36.8074 33.4565 36.8541 33.2194 36.8541H7.28413C7.04702 36.8541 6.81222 36.8074 6.59315 36.7166C6.37409 36.6259 6.17504 36.4929 6.00737 36.3252C5.8397 36.1576 5.7067 35.9585 5.61596 35.7395C5.52522 35.5204 5.47852 35.2856 5.47852 35.0485V7.3076C5.47852 6.43691 5.8244 5.60188 6.44007 4.98621C7.05574 4.37054 7.89077 4.02466 8.76146 4.02466H25.1762ZM25.1762 7.3076H8.76146V33.5711H12.0444V28.6467C12.0444 27.3407 12.5632 26.0882 13.4867 25.1646C14.4102 24.2411 15.6628 23.7223 16.9688 23.7223C18.2749 23.7223 19.5274 24.2411 20.4509 25.1646C21.3744 26.0882 21.8932 27.3407 21.8932 28.6467V33.5711H25.1762V7.3076ZM31.7421 18.7979H28.4591V33.5711H31.7421V18.7979ZM16.9688 27.0053C16.5668 27.0053 16.1787 27.1529 15.8783 27.4201C15.5778 27.6873 15.3859 28.0554 15.3388 28.4547L15.3273 28.6467V33.5711H18.6103V28.6467C18.6103 28.2114 18.4373 27.7939 18.1295 27.486C17.8217 27.1782 17.4042 27.0053 16.9688 27.0053ZM16.9688 10.5905C17.4042 10.5905 17.8217 10.7635 18.1295 11.0713C18.4373 11.3792 18.6103 11.7967 18.6103 12.232V13.8735H20.2518C20.6871 13.8735 21.1046 14.0464 21.4125 14.3543C21.7203 14.6621 21.8932 15.0796 21.8932 15.515C21.8932 15.9503 21.7203 16.3678 21.4125 16.6757C21.1046 16.9835 20.6871 17.1564 20.2518 17.1564H18.6103V18.7979C18.6103 19.2332 18.4373 19.6508 18.1295 19.9586C17.8217 20.2664 17.4042 20.4394 16.9688 20.4394C16.5335 20.4394 16.116 20.2664 15.8081 19.9586C15.5003 19.6508 15.3273 19.2332 15.3273 18.7979V17.1564H13.6859C13.2505 17.1564 12.833 16.9835 12.5252 16.6757C12.2173 16.3678 12.0444 15.9503 12.0444 15.515C12.0444 15.0796 12.2173 14.6621 12.5252 14.3543C12.833 14.0464 13.2505 13.8735 13.6859 13.8735H15.3273V12.232C15.3273 11.7967 15.5003 11.3792 15.8081 11.0713C16.116 10.7635 16.5335 10.5905 16.9688 10.5905Z" fill="#208BCC"/>
</g>
<defs>
<clipPath id="clip0_2_2091">
<rect width="39.3953" height="39.3953" fill="white" transform="translate(0.552734 0.742188)"/>
</clipPath>
</defs>
</svg>
