<svg width="40" height="40" viewBox="0 0 40 40" fill="none" xmlns="http://www.w3.org/2000/svg">
<g clip-path="url(#clip0_2_2082)">
<path d="M25.1762 3.55933C26.0469 3.55933 26.8819 3.90521 27.4976 4.52088C28.1132 5.13655 28.4591 5.97158 28.4591 6.84227V15.0496H31.7421C32.6128 15.0496 33.4478 15.3955 34.0635 16.0112C34.6791 16.6269 35.025 17.4619 35.025 18.3326V34.5831C35.025 34.8203 34.9783 35.0551 34.8876 35.2741C34.7968 35.4932 34.6638 35.6922 34.4962 35.8599C34.3285 36.0276 34.1294 36.1606 33.9104 36.2513C33.6913 36.3421 33.4565 36.3888 33.2194 36.3888H7.28413C7.04702 36.3888 6.81222 36.3421 6.59315 36.2513C6.37409 36.1606 6.17504 36.0276 6.00737 35.8599C5.8397 35.6922 5.7067 35.4932 5.61596 35.2741C5.52522 35.0551 5.47852 34.8203 5.47852 34.5831V6.84227C5.47852 5.97158 5.8244 5.13655 6.44007 4.52088C7.05574 3.90521 7.89077 3.55933 8.76146 3.55933H25.1762ZM25.1762 6.84227H8.76146V33.1058H12.0444V28.1814C12.0444 26.8754 12.5632 25.6228 13.4867 24.6993C14.4102 23.7758 15.6628 23.257 16.9688 23.257C18.2749 23.257 19.5274 23.7758 20.4509 24.6993C21.3744 25.6228 21.8932 26.8754 21.8932 28.1814V33.1058H25.1762V6.84227ZM31.7421 18.3326H28.4591V33.1058H31.7421V18.3326ZM16.9688 26.5399C16.5668 26.54 16.1787 26.6876 15.8783 26.9548C15.5778 27.2219 15.3859 27.5901 15.3388 27.9893L15.3273 28.1814V33.1058H18.6103V28.1814C18.6103 27.7461 18.4373 27.3285 18.1295 27.0207C17.8217 26.7129 17.4042 26.5399 16.9688 26.5399ZM16.9688 10.1252C17.4042 10.1252 17.8217 10.2982 18.1295 10.606C18.4373 10.9138 18.6103 11.3313 18.6103 11.7667V13.4082H20.2518C20.6871 13.4082 21.1046 13.5811 21.4125 13.8889C21.7203 14.1968 21.8932 14.6143 21.8932 15.0496C21.8932 15.485 21.7203 15.9025 21.4125 16.2103C21.1046 16.5182 20.6871 16.6911 20.2518 16.6911H18.6103V18.3326C18.6103 18.7679 18.4373 19.1854 18.1295 19.4933C17.8217 19.8011 17.4042 19.974 16.9688 19.974C16.5335 19.974 16.116 19.8011 15.8081 19.4933C15.5003 19.1854 15.3273 18.7679 15.3273 18.3326V16.6911H13.6859C13.2505 16.6911 12.833 16.5182 12.5252 16.2103C12.2173 15.9025 12.0444 15.485 12.0444 15.0496C12.0444 14.6143 12.2173 14.1968 12.5252 13.8889C12.833 13.5811 13.2505 13.4082 13.6859 13.4082H15.3273V11.7667C15.3273 11.3313 15.5003 10.9138 15.8081 10.606C16.116 10.2982 16.5335 10.1252 16.9688 10.1252Z" fill="#208BCC"/>
</g>
<defs>
<clipPath id="clip0_2_2082">
<rect width="39.3953" height="39.3953" fill="white" transform="translate(0.552734 0.275391)"/>
</clipPath>
</defs>
</svg>
