<svg width="40" height="40" viewBox="0 0 40 40" fill="none" xmlns="http://www.w3.org/2000/svg">
<g clip-path="url(#clip0_2_2100)">
<path d="M25.1762 3.43274C26.0469 3.43274 26.8819 3.77862 27.4976 4.39429C28.1132 5.00996 28.4591 5.84499 28.4591 6.71568V14.923H31.7421C32.6128 14.923 33.4478 15.2689 34.0635 15.8846C34.6791 16.5003 35.025 17.3353 35.025 18.206V34.4566C35.025 34.6937 34.9783 34.9285 34.8876 35.1475C34.7968 35.3666 34.6638 35.5657 34.4962 35.7333C34.3285 35.901 34.1294 36.034 33.9104 36.1247C33.6913 36.2155 33.4565 36.2622 33.2194 36.2622H7.28413C7.04702 36.2622 6.81222 36.2155 6.59315 36.1247C6.37409 36.034 6.17504 35.901 6.00737 35.7333C5.8397 35.5657 5.7067 35.3666 5.61596 35.1475C5.52522 34.9285 5.47852 34.6937 5.47852 34.4566V6.71568C5.47852 5.84499 5.8244 5.00996 6.44007 4.39429C7.05574 3.77862 7.89077 3.43274 8.76146 3.43274H25.1762ZM25.1762 6.71568H8.76146V32.9792H12.0444V28.0548C12.0444 26.7488 12.5632 25.4962 13.4867 24.5727C14.4102 23.6492 15.6628 23.1304 16.9688 23.1304C18.2749 23.1304 19.5274 23.6492 20.4509 24.5727C21.3744 25.4962 21.8932 26.7488 21.8932 28.0548V32.9792H25.1762V6.71568ZM31.7421 18.206H28.4591V32.9792H31.7421V18.206ZM16.9688 26.4133C16.5668 26.4134 16.1787 26.561 15.8783 26.8282C15.5778 27.0953 15.3859 27.4635 15.3388 27.8628L15.3273 28.0548V32.9792H18.6103V28.0548C18.6103 27.6195 18.4373 27.202 18.1295 26.8941C17.8217 26.5863 17.4042 26.4133 16.9688 26.4133ZM16.9688 9.99863C17.4042 9.99863 17.8217 10.1716 18.1295 10.4794C18.4373 10.7872 18.6103 11.2048 18.6103 11.6401V13.2816H20.2518C20.6871 13.2816 21.1046 13.4545 21.4125 13.7623C21.7203 14.0702 21.8932 14.4877 21.8932 14.923C21.8932 15.3584 21.7203 15.7759 21.4125 16.0837C21.1046 16.3916 20.6871 16.5645 20.2518 16.5645H18.6103V18.206C18.6103 18.6413 18.4373 19.0588 18.1295 19.3667C17.8217 19.6745 17.4042 19.8475 16.9688 19.8475C16.5335 19.8475 16.116 19.6745 15.8081 19.3667C15.5003 19.0588 15.3273 18.6413 15.3273 18.206V16.5645H13.6859C13.2505 16.5645 12.833 16.3916 12.5252 16.0837C12.2173 15.7759 12.0444 15.3584 12.0444 14.923C12.0444 14.4877 12.2173 14.0702 12.5252 13.7623C12.833 13.4545 13.2505 13.2816 13.6859 13.2816H15.3273V11.6401C15.3273 11.2048 15.5003 10.7872 15.8081 10.4794C16.116 10.1716 16.5335 9.99863 16.9688 9.99863Z" fill="#208BCC"/>
</g>
<defs>
<clipPath id="clip0_2_2100">
<rect width="39.3953" height="39.3953" fill="white" transform="translate(0.552734 0.148438)"/>
</clipPath>
</defs>
</svg>
