<svg width="20" height="21" viewBox="0 0 20 21" fill="none" xmlns="http://www.w3.org/2000/svg">
<path d="M17.0598 7.41409L12.5014 6.70428L10.4637 2.27808C10.408 2.15689 10.3165 2.05879 10.2034 1.99915C9.9197 1.84911 9.57499 1.97415 9.43315 2.27808L7.39542 6.70428L2.837 7.41409C2.71133 7.43332 2.59642 7.4968 2.50845 7.59298C2.4021 7.7101 2.34349 7.86767 2.34551 8.03107C2.34753 8.19446 2.41001 8.35031 2.51922 8.46437L5.8173 11.9095L5.03811 16.7743C5.01984 16.8875 5.03153 17.0039 5.07185 17.1103C5.11217 17.2167 5.17952 17.3089 5.26625 17.3764C5.35297 17.4439 5.45562 17.484 5.56254 17.4921C5.66945 17.5003 5.77637 17.4762 5.87116 17.4226L9.94842 15.1258L14.0257 17.4226C14.137 17.4861 14.2663 17.5072 14.3901 17.4841C14.7025 17.4264 14.9126 17.109 14.8587 16.7743L14.0795 11.9095L17.3776 8.46437C17.4674 8.37012 17.5266 8.24701 17.5446 8.11236C17.5931 7.77573 17.374 7.4641 17.0598 7.41409V7.41409Z" fill="#D8D8DD"></path>
<mask id="mask0_2_2021" style="mask-type: alpha" maskUnits="userSpaceOnUse" x="2" y="1" width="16" height="17">
<path d="M17.0601 7.41409L12.5017 6.70428L10.4639 2.27808C10.4083 2.15689 10.3167 2.05879 10.2036 1.99915C9.91994 1.84911 9.57523 1.97415 9.4334 2.27808L7.39566 6.70428L2.83724 7.41409C2.71157 7.43332 2.59667 7.4968 2.50869 7.59298C2.40234 7.7101 2.34373 7.86767 2.34575 8.03107C2.34777 8.19446 2.41025 8.35031 2.51947 8.46437L5.81754 11.9095L5.03836 16.7743C5.02008 16.8875 5.03177 17.0039 5.07209 17.1103C5.11242 17.2167 5.17976 17.3089 5.26649 17.3764C5.35322 17.4439 5.45586 17.484 5.56278 17.4921C5.6697 17.5003 5.77661 17.4762 5.8714 17.4226L9.94866 15.1258L14.0259 17.4226C14.1372 17.4861 14.2665 17.5072 14.3904 17.4841C14.7028 17.4264 14.9128 17.109 14.859 16.7743L14.0798 11.9095L17.3779 8.46437C17.4676 8.37012 17.5269 8.24701 17.5448 8.11236C17.5933 7.77573 17.3743 7.4641 17.0601 7.41409Z" fill="#F4CD0C"></path>
</mask>
<g mask="url('#mask0_2_2021')">
<rect x="-11.0618" y="0.621826" width="86.6697" height="98.4883" fill="#F4B30C"></rect>
</g>
</svg>
