<svg width="20" height="21" viewBox="0 0 20 21" fill="none" xmlns="http://www.w3.org/2000/svg">
<path d="M17.4705 7.41409L12.5865 6.70428L10.4032 2.27808C10.3436 2.15689 10.2454 2.05879 10.1243 1.99915C9.82033 1.84911 9.451 1.97415 9.29904 2.27808L7.11575 6.70428L2.23173 7.41409C2.09708 7.43332 1.97397 7.4968 1.87971 7.59298C1.76576 7.7101 1.70297 7.86767 1.70513 8.03107C1.7073 8.19446 1.77424 8.35031 1.89125 8.46437L5.42491 11.9095L4.59006 16.7743C4.57049 16.8875 4.58301 17.0039 4.62621 17.1103C4.66941 17.2167 4.74157 17.3089 4.83449 17.3764C4.92742 17.4439 5.03739 17.484 5.15195 17.4921C5.2665 17.5003 5.38105 17.4762 5.48261 17.4226L9.85111 15.1258L14.2196 17.4226C14.3389 17.4861 14.4774 17.5072 14.6101 17.4841C14.9448 17.4264 15.1699 17.109 15.1122 16.7743L14.2773 11.9095L17.811 8.46437C17.9071 8.37012 17.9706 8.24701 17.9899 8.11236C18.0418 7.77573 17.8071 7.4641 17.4705 7.41409V7.41409Z" fill="#D8D8DD"></path>
<mask id="mask0_2_2025" style="mask-type: alpha" maskUnits="userSpaceOnUse" x="1" y="1" width="17" height="17">
<path d="M17.471 7.41409L12.587 6.70428L10.4037 2.27808C10.344 2.15689 10.2459 2.05879 10.1247 1.99915C9.82082 1.84911 9.45149 1.97415 9.29952 2.27808L7.11624 6.70428L2.23222 7.41409C2.09757 7.43332 1.97446 7.4968 1.8802 7.59298C1.76625 7.7101 1.70346 7.86767 1.70562 8.03107C1.70778 8.19446 1.77473 8.35031 1.89174 8.46437L5.42539 11.9095L4.59055 16.7743C4.57097 16.8875 4.5835 17.0039 4.6267 17.1103C4.6699 17.2167 4.74206 17.3089 4.83498 17.3764C4.9279 17.4439 5.03788 17.484 5.15243 17.4921C5.26699 17.5003 5.38154 17.4762 5.4831 17.4226L9.8516 15.1258L14.2201 17.4226C14.3394 17.4861 14.4779 17.5072 14.6106 17.4841C14.9453 17.4264 15.1704 17.109 15.1126 16.7743L14.2778 11.9095L17.8115 8.46437C17.9076 8.37012 17.9711 8.24701 17.9903 8.11236C18.0423 7.77573 17.8076 7.4641 17.471 7.41409Z" fill="#F4CD0C"></path>
</mask>
<g mask="url('#mask0_2_2025')">
<rect x="-11.8154" y="0.621826" width="86.6697" height="98.4883" fill="#F4B30C"></rect>
</g>
</svg>
