<svg width="21" height="21" viewBox="0 0 21 21" fill="none" xmlns="http://www.w3.org/2000/svg">
<path d="M17.8011 7.41409L12.917 6.70428L10.7337 2.27808C10.6741 2.15689 10.576 2.05879 10.4548 1.99915C10.1509 1.84911 9.78157 1.97415 9.6296 2.27808L7.44632 6.70428L2.5623 7.41409C2.42764 7.43332 2.30453 7.4968 2.21028 7.59298C2.09633 7.7101 2.03353 7.86767 2.0357 8.03107C2.03786 8.19446 2.10481 8.35031 2.22182 8.46437L5.75547 11.9095L4.92063 16.7743C4.90105 16.8875 4.91357 17.0039 4.95678 17.1103C4.99998 17.2167 5.07213 17.3089 5.16506 17.3764C5.25798 17.4439 5.36796 17.484 5.48251 17.4921C5.59707 17.5003 5.71162 17.4762 5.81318 17.4226L10.1817 15.1258L14.5502 17.4226C14.6694 17.4861 14.8079 17.5072 14.9407 17.4841C15.2754 17.4264 15.5004 17.109 15.4427 16.7743L14.6079 11.9095L18.1415 8.46437C18.2377 8.37012 18.3012 8.24701 18.3204 8.11236C18.3724 7.77573 18.1377 7.4641 17.8011 7.41409V7.41409Z" fill="#D8D8DD"></path>
<mask id="mask0_2_2022" style="mask-type: alpha" maskUnits="userSpaceOnUse" x="2" y="1" width="17" height="17">
<path d="M17.8011 7.41409L12.917 6.70428L10.7337 2.27808C10.6741 2.15689 10.576 2.05879 10.4548 1.99915C10.1509 1.84911 9.78157 1.97415 9.6296 2.27808L7.44632 6.70428L2.5623 7.41409C2.42764 7.43332 2.30453 7.4968 2.21028 7.59298C2.09633 7.7101 2.03353 7.86767 2.0357 8.03107C2.03786 8.19446 2.10481 8.35031 2.22182 8.46437L5.75547 11.9095L4.92063 16.7743C4.90105 16.8875 4.91358 17.0039 4.95678 17.1103C4.99998 17.2167 5.07213 17.3089 5.16506 17.3764C5.25798 17.4439 5.36796 17.484 5.48251 17.4921C5.59707 17.5003 5.71162 17.4762 5.81318 17.4226L10.1817 15.1258L14.5502 17.4226C14.6694 17.4861 14.8079 17.5072 14.9407 17.4841C15.2754 17.4264 15.5004 17.109 15.4427 16.7743L14.6079 11.9095L18.1415 8.46437C18.2377 8.37012 18.3012 8.24701 18.3204 8.11236C18.3724 7.77573 18.1377 7.4641 17.8011 7.41409Z" fill="#F4CD0C"></path>
</mask>
<g mask="url('#mask0_2_2022')">
<rect x="-11.4854" y="0.621826" width="86.6697" height="98.4883" fill="#F4B30C"></rect>
</g>
</svg>
