<svg width="169" height="35" viewBox="0 0 169 35" fill="none" xmlns="http://www.w3.org/2000/svg">
<path d="M24.7001 28.7499H10.7001C6.50007 28.7499 3.70007 25.9499 3.70007 21.7499V13.3499C3.70007 9.14991 6.50007 6.34991 10.7001 6.34991H24.7001C28.9001 6.34991 31.7001 9.14991 31.7001 13.3499V21.7499C31.7001 25.9499 28.9001 28.7499 24.7001 28.7499Z" stroke="white" stroke-width="1.575" stroke-miterlimit="10" stroke-linecap="round" stroke-linejoin="round"></path>
<path d="M16.86 14.05L20.36 16.15C21.62 16.99 21.62 18.25 20.36 19.09L16.86 21.19C15.46 22.03 14.34 21.33 14.34 19.79V15.59C14.34 13.77 15.46 13.21 16.86 14.05Z" stroke="white" stroke-width="1.575" stroke-miterlimit="10" stroke-linecap="round" stroke-linejoin="round"></path>
<path d="M87.7001 13.77V17.83H91.3401C91.6201 17.83 91.7601 18.11 91.7601 18.39L91.2001 21.05C91.2001 21.19 90.9201 21.33 90.7801 21.33H87.7001V31.55H83.5001V21.47H81.1201C80.8401 21.47 80.7001 21.33 80.7001 21.05V18.39C80.7001 18.11 80.8401 17.97 81.1201 17.97H83.5001V13.35C83.5001 10.97 85.3201 9.14996 87.7001 9.14996H91.4801C91.7601 9.14996 91.9001 9.28996 91.9001 9.56996V12.93C91.9001 13.21 91.7601 13.35 91.4801 13.35H88.1201C87.8401 13.35 87.7001 13.49 87.7001 13.77Z" stroke="white" stroke-width="1.575" stroke-miterlimit="10" stroke-linecap="round"></path>
<path d="M89.1001 31.55H80.7001C73.7001 31.55 70.9001 28.75 70.9001 21.75V13.35C70.9001 6.34999 73.7001 3.54999 80.7001 3.54999H89.1001C96.1001 3.54999 98.9001 6.34999 98.9001 13.35V21.75C98.9001 28.75 96.1001 31.55 89.1001 31.55Z" stroke="white" stroke-width="1.575" stroke-linecap="round" stroke-linejoin="round"></path>
<path d="M144.96 29.59C147.06 30.85 149.58 31.55 152.1 31.55C159.8 31.55 166.1 25.25 166.1 17.55C166.1 9.84999 159.8 3.54999 152.1 3.54999C144.4 3.54999 138.1 9.84999 138.1 17.55C138.1 20.07 138.8 22.45 139.92 24.55L138.563 29.7713C138.358 30.5577 139.086 31.2683 139.867 31.0451L144.96 29.59Z" stroke="white" stroke-width="1.575" stroke-miterlimit="10" stroke-linecap="round" stroke-linejoin="round"></path>
<path d="M158.4 21.5378C158.4 21.7646 158.35 21.9977 158.242 22.2245C158.135 22.4513 157.996 22.6655 157.813 22.8671C157.504 23.2073 157.163 23.453 156.779 23.6105C156.4 23.768 155.99 23.8499 155.548 23.8499C154.905 23.8499 154.217 23.6987 153.491 23.39C152.766 23.0813 152.04 22.6655 151.321 22.1426C150.595 21.6134 149.908 21.0275 149.251 20.3786C148.601 19.7234 148.015 19.0367 147.491 18.3185C146.974 17.6003 146.557 16.8821 146.254 16.1702C145.951 15.452 145.8 14.7653 145.8 14.1101C145.8 13.6817 145.876 13.2722 146.027 12.8942C146.179 12.5099 146.418 12.1571 146.753 11.8421C147.157 11.4452 147.598 11.2499 148.065 11.2499C148.242 11.2499 148.418 11.2877 148.576 11.3633C148.74 11.4389 148.885 11.5523 148.999 11.7161L150.463 13.7762C150.576 13.9337 150.658 14.0786 150.715 14.2172C150.772 14.3495 150.803 14.4818 150.803 14.6015C150.803 14.7527 150.759 14.9039 150.671 15.0488C150.589 15.1937 150.469 15.3449 150.318 15.4961L149.838 15.9938C149.769 16.0631 149.737 16.145 149.737 16.2458C149.737 16.2962 149.743 16.3403 149.756 16.3907C149.775 16.4411 149.794 16.4789 149.807 16.5167C149.92 16.7246 150.116 16.9955 150.393 17.3231C150.677 17.6507 150.98 17.9846 151.308 18.3185C151.649 18.6524 151.977 18.9611 152.311 19.2446C152.64 19.5218 152.911 19.7108 153.125 19.8242C153.157 19.8368 153.195 19.8557 153.239 19.8746C153.289 19.8935 153.34 19.8998 153.397 19.8998C153.504 19.8998 153.586 19.862 153.655 19.7927L154.135 19.3202C154.293 19.1627 154.444 19.043 154.589 18.9674C154.734 18.8792 154.879 18.8351 155.037 18.8351C155.157 18.8351 155.283 18.8603 155.422 18.917C155.561 18.9737 155.706 19.0556 155.864 19.1627L157.952 20.6432C158.116 20.7566 158.23 20.8889 158.299 21.0464C158.362 21.2039 158.4 21.3614 158.4 21.5378Z" stroke="white" stroke-width="1.575" stroke-miterlimit="10"></path>
</svg>
