<svg width="15" height="15" viewBox="0 0 15 15" fill="none" xmlns="http://www.w3.org/2000/svg">
<g clip-path="url('#clip0_70_1781')">
<path d="M1.96712 5.75047H3.71712V12.7505H1.96712C1.64496 12.7505 1.38379 12.4893 1.38379 12.1672V6.3338C1.38379 6.01164 1.64496 5.75047 1.96712 5.75047ZM5.05464 4.99628L8.78827 1.26268C8.89088 1.16004 9.0534 1.1485 9.16948 1.23558L9.66683 1.60859C9.94957 1.82064 10.077 2.18196 9.98976 2.52446L9.31701 5.16714H13.0505C13.6948 5.16714 14.2171 5.68947 14.2171 6.3338V7.56133C14.2171 7.71375 14.1873 7.86466 14.1293 8.00554L12.3242 12.3892C12.2342 12.6078 12.0212 12.7505 11.7848 12.7505H5.46712C5.14496 12.7505 4.88379 12.4893 4.88379 12.1672V5.40877C4.88379 5.25405 4.94525 5.10568 5.05464 4.99628Z" fill="white"></path>
</g>
<defs>
<clipPath id="clip0_70_1781">
<rect width="14" height="14" fill="white" transform="translate(0.799805 0.500488)"></rect>
</clipPath>
</defs>
</svg>
