<svg width="15" height="15" viewBox="0 0 15 15" fill="none" xmlns="http://www.w3.org/2000/svg">
<g clip-path="url('#clip0_89_1118')">
<path d="M1.96712 5.51048H3.71712V12.5105H1.96712C1.64496 12.5105 1.38379 12.2493 1.38379 11.9272V6.09381C1.38379 5.77165 1.64496 5.51048 1.96712 5.51048ZM5.05464 4.75629L8.78827 1.02269C8.89088 0.920049 9.0534 0.908505 9.16948 0.995591L9.66683 1.3686C9.94957 1.58065 10.077 1.94197 9.98976 2.28447L9.31701 4.92715H13.0505C13.6948 4.92715 14.2171 5.44948 14.2171 6.09381V7.32134C14.2171 7.47376 14.1873 7.62467 14.1293 7.76555L12.3242 12.1492C12.2342 12.3678 12.0212 12.5105 11.7848 12.5105H5.46712C5.14496 12.5105 4.88379 12.2493 4.88379 11.9272V5.16878C4.88379 5.01406 4.94525 4.86569 5.05464 4.75629Z" fill="white"></path>
</g>
<defs>
<clipPath id="clip0_89_1118">
<rect width="14" height="14" fill="white" transform="translate(0.799805 0.260498)"></rect>
</clipPath>
</defs>
</svg>
