<svg width="169" height="35" viewBox="0 0 169 35" fill="none" xmlns="http://www.w3.org/2000/svg">
<path d="M24.6973 28.75H10.6973C6.49727 28.75 3.69727 25.95 3.69727 21.75V13.35C3.69727 9.14998 6.49727 6.34998 10.6973 6.34998H24.6973C28.8973 6.34998 31.6973 9.14998 31.6973 13.35V21.75C31.6973 25.95 28.8973 28.75 24.6973 28.75Z" stroke="white" stroke-width="1.575" stroke-miterlimit="10" stroke-linecap="round" stroke-linejoin="round"></path>
<path d="M16.8598 14.05L20.3598 16.15C21.6198 16.99 21.6198 18.25 20.3598 19.09L16.8598 21.19C15.4598 22.03 14.3398 21.33 14.3398 19.79V15.59C14.3398 13.77 15.4598 13.21 16.8598 14.05Z" stroke="white" stroke-width="1.575" stroke-miterlimit="10" stroke-linecap="round" stroke-linejoin="round"></path>
<path d="M87.7012 13.77V17.83H91.3412C91.6212 17.83 91.7612 18.11 91.7612 18.39L91.2012 21.05C91.2012 21.19 90.9212 21.33 90.7812 21.33H87.7012V31.55H83.5012V21.47H81.1212C80.8412 21.47 80.7012 21.33 80.7012 21.05V18.39C80.7012 18.11 80.8412 17.97 81.1212 17.97H83.5012V13.35C83.5012 10.97 85.3212 9.14998 87.7012 9.14998H91.4812C91.7612 9.14998 91.9012 9.28998 91.9012 9.56998V12.93C91.9012 13.21 91.7612 13.35 91.4812 13.35H88.1212C87.8412 13.35 87.7012 13.49 87.7012 13.77Z" stroke="white" stroke-width="1.575" stroke-miterlimit="10" stroke-linecap="round"></path>
<path d="M89.1004 31.55H80.7004C73.7004 31.55 70.9004 28.75 70.9004 21.75V13.35C70.9004 6.34999 73.7004 3.54999 80.7004 3.54999H89.1004C96.1004 3.54999 98.9004 6.34999 98.9004 13.35V21.75C98.9004 28.75 96.1004 31.55 89.1004 31.55Z" stroke="white" stroke-width="1.575" stroke-linecap="round" stroke-linejoin="round"></path>
<path d="M144.958 29.59C147.058 30.85 149.578 31.55 152.098 31.55C159.798 31.55 166.098 25.25 166.098 17.55C166.098 9.84999 159.798 3.54999 152.098 3.54999C144.398 3.54999 138.098 9.84999 138.098 17.55C138.098 20.07 138.798 22.45 139.918 24.55L138.56 29.7713C138.356 30.5577 139.084 31.2683 139.865 31.0451L144.958 29.59Z" stroke="white" stroke-width="1.575" stroke-miterlimit="10" stroke-linecap="round" stroke-linejoin="round"></path>
<path d="M158.399 21.5379C158.399 21.7647 158.348 21.9978 158.241 22.2246C158.134 22.4514 157.995 22.6656 157.812 22.8672C157.503 23.2074 157.162 23.4531 156.777 23.6106C156.399 23.7681 155.989 23.85 155.547 23.85C154.903 23.85 154.216 23.6988 153.49 23.3901C152.764 23.0814 152.039 22.6656 151.32 22.1427C150.594 21.6135 149.906 21.0276 149.25 20.3787C148.6 19.7235 148.013 19.0368 147.49 18.3186C146.972 17.6004 146.556 16.8822 146.253 16.1703C145.95 15.4521 145.799 14.7654 145.799 14.1102C145.799 13.6818 145.875 13.2723 146.026 12.8943C146.177 12.51 146.417 12.1572 146.752 11.8422C147.155 11.4453 147.597 11.25 148.064 11.25C148.241 11.25 148.417 11.2878 148.575 11.3634C148.739 11.439 148.884 11.5524 148.998 11.7162L150.462 13.7763C150.575 13.9338 150.657 14.0787 150.714 14.2173C150.771 14.3496 150.802 14.4819 150.802 14.6016C150.802 14.7528 150.758 14.904 150.67 15.0489C150.588 15.1938 150.468 15.345 150.316 15.4962L149.837 15.9939C149.767 16.0632 149.736 16.1451 149.736 16.2459C149.736 16.2963 149.742 16.3404 149.755 16.3908C149.774 16.4412 149.793 16.479 149.805 16.5168C149.919 16.7247 150.115 16.9956 150.392 17.3232C150.676 17.6508 150.979 17.9847 151.307 18.3186C151.648 18.6525 151.976 18.9612 152.31 19.2447C152.638 19.5219 152.91 19.7109 153.124 19.8243C153.156 19.8369 153.194 19.8558 153.238 19.8747C153.288 19.8936 153.339 19.8999 153.395 19.8999C153.503 19.8999 153.585 19.8621 153.654 19.7928L154.134 19.3203C154.291 19.1628 154.443 19.0431 154.588 18.9675C154.733 18.8793 154.878 18.8352 155.036 18.8352C155.156 18.8352 155.282 18.8604 155.421 18.9171C155.56 18.9738 155.705 19.0557 155.862 19.1628L157.951 20.6433C158.115 20.7567 158.228 20.889 158.298 21.0465C158.361 21.204 158.399 21.3615 158.399 21.5379Z" stroke="white" stroke-width="1.575" stroke-miterlimit="10"></path>
</svg>
