<svg width="160" height="32" viewBox="0 0 160 32" fill="none" xmlns="http://www.w3.org/2000/svg">
<path d="M22.6665 26.6666H9.33317C5.33317 26.6666 2.6665 24 2.6665 20V12C2.6665 7.99998 5.33317 5.33331 9.33317 5.33331H22.6665C26.6665 5.33331 29.3332 7.99998 29.3332 12V20C29.3332 24 26.6665 26.6666 22.6665 26.6666Z" stroke="white" stroke-width="1.5" stroke-miterlimit="10" stroke-linecap="round" stroke-linejoin="round"></path>
<path d="M15.1998 12.6667L18.5331 14.6667C19.7331 15.4667 19.7331 16.6667 18.5331 17.4667L15.1998 19.4667C13.8665 20.2667 12.7998 19.6 12.7998 18.1333V14.1333C12.7998 12.4 13.8665 11.8667 15.1998 12.6667Z" stroke="white" stroke-width="1.5" stroke-miterlimit="10" stroke-linecap="round" stroke-linejoin="round"></path>
<path d="M82.6667 12.4V16.2667H86.1333C86.4 16.2667 86.5333 16.5333 86.5333 16.8L86 19.3333C86 19.4667 85.7333 19.6 85.6 19.6H82.6667V29.3333H78.6667V19.7333H76.4C76.1333 19.7333 76 19.6 76 19.3333V16.8C76 16.5333 76.1333 16.4 76.4 16.4H78.6667V12C78.6667 9.73333 80.4 8 82.6667 8H86.2667C86.5333 8 86.6667 8.13333 86.6667 8.4V11.6C86.6667 11.8667 86.5333 12 86.2667 12H83.0667C82.8 12 82.6667 12.1333 82.6667 12.4Z" stroke="white" stroke-width="1.5" stroke-miterlimit="10" stroke-linecap="round"></path>
<path d="M83.9998 29.3334H75.9998C69.3332 29.3334 66.6665 26.6667 66.6665 20V12C66.6665 5.33335 69.3332 2.66669 75.9998 2.66669H83.9998C90.6665 2.66669 93.3332 5.33335 93.3332 12V20C93.3332 26.6667 90.6665 29.3334 83.9998 29.3334Z" stroke="white" stroke-width="1.5" stroke-linecap="round" stroke-linejoin="round"></path>
<path d="M137.2 27.4667C139.2 28.6667 141.6 29.3334 144 29.3334C151.333 29.3334 157.333 23.3334 157.333 16C157.333 8.66669 151.333 2.66669 144 2.66669C136.667 2.66669 130.667 8.66669 130.667 16C130.667 18.4 131.333 20.6667 132.4 22.6667L131.107 27.6393C130.912 28.3883 131.605 29.0651 132.349 28.8525L137.2 27.4667Z" stroke="white" stroke-width="1.5" stroke-miterlimit="10" stroke-linecap="round" stroke-linejoin="round"></path>
<path d="M150 19.798C150 20.014 149.952 20.236 149.85 20.452C149.748 20.668 149.615 20.872 149.441 21.064C149.147 21.388 148.822 21.622 148.456 21.772C148.095 21.922 147.705 22 147.284 22C146.671 22 146.016 21.856 145.325 21.562C144.634 21.268 143.943 20.872 143.258 20.374C142.567 19.87 141.912 19.312 141.287 18.694C140.668 18.07 140.109 17.416 139.61 16.732C139.118 16.048 138.721 15.364 138.433 14.686C138.144 14.002 138 13.348 138 12.724C138 12.316 138.072 11.926 138.216 11.566C138.361 11.2 138.589 10.864 138.907 10.564C139.292 10.186 139.713 10 140.157 10C140.325 10 140.494 10.036 140.644 10.108C140.8 10.18 140.938 10.288 141.047 10.444L142.441 12.406C142.549 12.556 142.627 12.694 142.681 12.826C142.735 12.952 142.765 13.078 142.765 13.192C142.765 13.336 142.723 13.48 142.639 13.618C142.561 13.756 142.447 13.9 142.302 14.044L141.846 14.518C141.78 14.584 141.75 14.662 141.75 14.758C141.75 14.806 141.756 14.848 141.768 14.896C141.786 14.944 141.804 14.98 141.816 15.016C141.924 15.214 142.11 15.472 142.375 15.784C142.645 16.096 142.933 16.414 143.246 16.732C143.57 17.05 143.883 17.344 144.201 17.614C144.514 17.878 144.772 18.058 144.976 18.166C145.007 18.178 145.043 18.196 145.085 18.214C145.133 18.232 145.181 18.238 145.235 18.238C145.337 18.238 145.415 18.202 145.481 18.136L145.938 17.686C146.088 17.536 146.232 17.422 146.371 17.35C146.509 17.266 146.647 17.224 146.797 17.224C146.911 17.224 147.032 17.248 147.164 17.302C147.296 17.356 147.434 17.434 147.584 17.536L149.573 18.946C149.73 19.054 149.838 19.18 149.904 19.33C149.964 19.48 150 19.63 150 19.798Z" stroke="white" stroke-width="1.5" stroke-miterlimit="10"></path>
</svg>
