<svg width="31" height="32" viewBox="0 0 31 32" fill="none" xmlns="http://www.w3.org/2000/svg">
<g clip-path="url('#clip0_89_1129')">
<path d="M2.13795 2.11072C1.66496 3.34987 1.34043 4.67445 1.21098 6.05099L7.48999 7.73358L7.19707 8.82658L1.15007 7.20616C1.14934 7.26392 1.14795 7.3215 1.14795 7.37932C1.14774 8.21589 1.21822 9.05098 1.35865 9.87567H7.0589V11.0071H1.59806C1.80001 11.8064 2.0692 12.5871 2.40272 13.341L7.19707 12.0564L7.48999 13.1493L2.91023 14.3766C3.27177 15.046 3.68465 15.6864 4.14514 16.2921L7.89499 14.1272L8.46068 15.107L4.87509 17.1772C5.34612 17.7056 5.85466 18.1993 6.39676 18.6545L9.10502 15.9465L9.90509 16.7467L7.29824 19.3533C7.84227 19.7424 8.41248 20.0936 9.00482 20.4042L10.7446 17.3907L11.7246 17.9566L10.0301 20.8914C10.7962 21.2194 11.5895 21.4801 12.4008 21.6706C12.4608 21.8865 12.5268 22.1007 12.5976 22.312C11.8492 22.917 11.1346 23.5526 10.4712 24.233C10.1928 24.0982 9.88745 24.0284 9.57813 24.0288C8.44548 24.0288 7.52717 24.9469 7.52717 26.0797C7.52717 26.1835 7.53504 26.2857 7.54999 26.3855C7.6723 25.6883 8.28019 25.1585 9.01238 25.1585C9.20026 25.1585 9.37978 25.1937 9.5452 25.2574C8.93349 25.9901 8.38312 26.7759 7.91612 27.6326C8.75754 27.1759 9.5923 26.6787 10.4076 26.1332C10.4673 26.2968 10.4977 26.4696 10.4975 26.6436C10.4975 27.3776 9.96497 27.9868 9.26529 28.1069C9.36884 28.1228 9.47344 28.1307 9.57819 28.1307C10.711 28.1307 11.6291 27.2124 11.6291 26.0797C11.6291 25.8272 11.5833 25.5856 11.4999 25.3624C12.1074 24.9102 12.7001 24.4281 13.2715 23.9102C13.4518 24.2556 13.6471 24.5783 13.8558 24.8679L11.2202 30.1458C14.1426 31.5063 18.2254 31.5238 20.7788 30.1458L18.228 25.0381C18.4533 24.7468 18.6645 24.4175 18.8592 24.0608C19.3786 24.522 19.9145 24.9551 20.4627 25.3631C20.3772 25.5923 20.3335 25.835 20.3337 26.0797C20.3337 27.2124 21.2519 28.1306 22.3847 28.1306C22.4911 28.1306 22.5958 28.1226 22.6979 28.107C21.9979 27.9869 21.4654 27.3777 21.4654 26.6437C21.4654 26.4642 21.4972 26.2922 21.5556 26.133C22.3708 26.6783 23.2054 27.1758 24.0467 27.6326C23.5799 26.7759 23.0307 25.9896 22.4194 25.2568C22.589 25.1918 22.7691 25.1584 22.9507 25.1586C23.6827 25.1586 24.2906 25.6883 24.4129 26.3854C24.4278 26.2856 24.4357 26.1836 24.4357 26.0798C24.4357 24.9469 23.5175 24.0289 22.3847 24.0289C22.0761 24.0284 21.7714 24.0979 21.4935 24.232C20.8876 23.6102 20.2377 23.0266 19.5592 22.4689C19.6772 22.1326 19.7809 21.7915 19.87 21.4465C20.3465 21.3037 20.8154 21.1363 21.2746 20.945L19.5492 17.9566L20.5292 17.3907L22.3057 20.4675C22.91 20.1581 23.4897 19.8075 24.0417 19.4196L21.3688 16.7466L22.1689 15.9464L24.9496 18.7268C25.5033 18.269 26.0227 17.7712 26.5036 17.2374L22.8133 15.1067L23.3789 14.127L27.2387 16.3553C27.7103 15.7423 28.1328 15.0931 28.5023 14.4136L23.7839 13.1492L24.0767 12.0563L29.0134 13.3791C29.355 12.6134 29.6302 11.8198 29.8358 11.007H24.2149V9.87555H30.0745C30.2148 9.05085 30.2853 8.21577 30.2852 7.3792C30.2852 7.30715 30.2837 7.23534 30.2825 7.16348L24.0766 8.82658L23.7838 7.73346L30.2184 6.00933C30.0864 4.64763 29.7631 3.3374 29.2948 2.11072H29.2946C27.689 4.62402 24.2333 6.58719 19.9241 7.37951C20.6912 8.32422 21.1618 9.53013 21.1618 10.8448C21.1618 12.7336 20.2098 14.4 18.7639 15.3858C17.4761 14.6346 16.166 13.6373 16.0078 12.733L17.0766 12.5023L16.9413 11.8755C17.8901 11.1892 18.996 11.3223 20.1765 11.8749L19.0684 9.42799L16.5313 9.97533L16.359 9.17684V9.17654L11.4625 10.2333L12.7012 12.0658C12.1808 13.2572 12.5367 14.5894 13.0312 15.6114C11.3841 14.6687 10.2707 12.8869 10.2707 10.8445C10.2707 9.52989 10.7413 8.32398 11.5083 7.37932C7.19931 6.58719 3.74365 4.62402 2.13807 2.11072H2.13795ZM15.2433 10.1372C15.5608 10.1338 15.8476 10.3536 15.9172 10.6761C15.9966 11.0445 15.7624 11.4078 15.3938 11.4872C15.0253 11.5667 14.6621 11.3325 14.5826 10.9639C14.5031 10.5955 14.7374 10.2322 15.1059 10.1526C15.1519 10.1427 15.1979 10.1377 15.2433 10.1372Z" fill="#1473B5"></path>
</g>
<defs>
<clipPath id="clip0_89_1129">
<rect width="31" height="31" fill="white" transform="translate(0 0.760498)"></rect>
</clipPath>
</defs>
</svg>
