<svg width="31" height="32" viewBox="0 0 31 32" fill="none" xmlns="http://www.w3.org/2000/svg">
<path d="M2.13795 1.49072C1.66496 2.72987 1.34043 4.05446 1.21098 5.43099L7.48999 7.11359L7.19707 8.20658L1.15007 6.58617C1.14934 6.64393 1.14795 6.70151 1.14795 6.75933C1.14774 7.5959 1.21822 8.43098 1.35865 9.25568H7.0589V10.3871H1.59806C1.80001 11.1864 2.0692 11.9671 2.40272 12.721L7.19707 11.4365L7.48999 12.5293L2.91023 13.7566C3.27177 14.426 3.68465 15.0664 4.14514 15.6721L7.89499 13.5072L8.46068 14.487L4.87509 16.5572C5.34612 17.0856 5.85466 17.5794 6.39676 18.0346L9.10502 15.3265L9.90509 16.1267L7.29824 18.7333C7.84227 19.1224 8.41248 19.4736 9.00482 19.7842L10.7446 16.7707L11.7246 17.3366L10.0301 20.2714C10.7962 20.5994 11.5895 20.8601 12.4008 21.0506C12.4608 21.2665 12.5268 21.4807 12.5976 21.692C11.8492 22.2971 11.1346 22.9326 10.4712 23.613C10.1928 23.4782 9.88745 23.4084 9.57813 23.4088C8.44548 23.4088 7.52717 24.3269 7.52717 25.4597C7.52717 25.5636 7.53504 25.6657 7.54999 25.7655C7.6723 25.0683 8.28019 24.5385 9.01238 24.5385C9.20026 24.5385 9.37978 24.5737 9.5452 24.6374C8.93349 25.3701 8.38312 26.1559 7.91612 27.0126C8.75754 26.5559 9.5923 26.0587 10.4076 25.5132C10.4673 25.6768 10.4977 25.8496 10.4975 26.0237C10.4975 26.7576 9.96497 27.3668 9.26529 27.4869C9.36884 27.5028 9.47344 27.5107 9.57819 27.5107C10.711 27.5107 11.6291 26.5924 11.6291 25.4597C11.6291 25.2072 11.5833 24.9657 11.4999 24.7424C12.1074 24.2903 12.7001 23.8081 13.2715 23.2902C13.4518 23.6356 13.6471 23.9583 13.8558 24.2479L11.2202 29.5258C14.1426 30.8863 18.2254 30.9039 20.7788 29.5258L18.228 24.4181C18.4533 24.1268 18.6645 23.7975 18.8592 23.4408C19.3786 23.902 19.9145 24.3351 20.4627 24.7431C20.3772 24.9723 20.3335 25.215 20.3337 25.4597C20.3337 26.5924 21.2519 27.5106 22.3847 27.5106C22.4911 27.5106 22.5958 27.5026 22.6979 27.487C21.9979 27.3669 21.4654 26.7577 21.4654 26.0237C21.4654 25.8442 21.4972 25.6722 21.5556 25.513C22.3708 26.0583 23.2054 26.5558 24.0467 27.0126C23.5799 26.1559 23.0307 25.3696 22.4194 24.6368C22.589 24.5718 22.7691 24.5385 22.9507 24.5386C23.6827 24.5386 24.2906 25.0683 24.4129 25.7654C24.4278 25.6656 24.4357 25.5636 24.4357 25.4598C24.4357 24.3269 23.5175 23.4089 22.3847 23.4089C22.0761 23.4084 21.7714 23.4779 21.4935 23.612C20.8876 22.9902 20.2377 22.4066 19.5592 21.8489C19.6772 21.5126 19.7809 21.1715 19.87 20.8265C20.3465 20.6837 20.8154 20.5163 21.2746 20.325L19.5492 17.3366L20.5292 16.7708L22.3057 19.8475C22.91 19.5381 23.4897 19.1875 24.0417 18.7996L21.3688 16.1266L22.1689 15.3264L24.9496 18.1068C25.5033 17.649 26.0227 17.1512 26.5036 16.6174L22.8133 14.4867L23.3789 13.507L27.2387 15.7353C27.7103 15.1223 28.1328 14.4731 28.5023 13.7936L23.7839 12.5292L24.0767 11.4363L29.0134 12.7591C29.355 11.9934 29.6302 11.1998 29.8358 10.387H24.2149V9.25556H30.0745C30.2148 8.43085 30.2853 7.59577 30.2852 6.75921C30.2852 6.68716 30.2837 6.61535 30.2825 6.54348L24.0766 8.20658L23.7838 7.11347L30.2184 5.38934C30.0864 4.02764 29.7631 2.7174 29.2948 1.49072H29.2946C27.689 4.00402 24.2333 5.9672 19.9241 6.75951C20.6912 7.70423 21.1618 8.91014 21.1618 10.2248C21.1618 12.1136 20.2098 13.78 18.7639 14.7658C17.4761 14.0146 16.166 13.0173 16.0078 12.113L17.0766 11.8823L16.9413 11.2555C17.8901 10.5692 18.996 10.7023 20.1765 11.2549L19.0684 8.80799L16.5313 9.35534L16.359 8.55685V8.55654L11.4625 9.61327L12.7012 11.4458C12.1808 12.6372 12.5367 13.9694 13.0312 14.9914C11.3841 14.0487 10.2707 12.2669 10.2707 10.2245C10.2707 8.90989 10.7413 7.70398 11.5083 6.75933C7.19931 5.9672 3.74365 4.00402 2.13807 1.49072H2.13795ZM15.2433 9.51724C15.5608 9.51385 15.8476 9.73357 15.9172 10.0561C15.9966 10.4245 15.7624 10.7878 15.3938 10.8673C15.0253 10.9468 14.6621 10.7125 14.5826 10.3439C14.5031 9.97552 14.7374 9.61218 15.1059 9.53262C15.1519 9.52275 15.1979 9.51772 15.2433 9.51724Z" fill="#1473B5"></path>
</svg>
