<svg width="31" height="31" viewBox="0 0 31 31" fill="none" xmlns="http://www.w3.org/2000/svg">
<path d="M2.13795 1.35071C1.66496 2.58986 1.34043 3.91444 1.21098 5.29098L7.48999 6.97358L7.19707 8.06657L1.15007 6.44615C1.14934 6.50391 1.14795 6.56149 1.14795 6.61932C1.14774 7.45588 1.21822 8.29097 1.35865 9.11566H7.0589V10.2471H1.59806C1.80001 11.0464 2.0692 11.8271 2.40272 12.581L7.19707 11.2964L7.48999 12.3893L2.91023 13.6166C3.27177 14.286 3.68465 14.9264 4.14514 15.5321L7.89499 13.3671L8.46068 14.347L4.87509 16.4172C5.34612 16.9456 5.85466 17.4393 6.39676 17.8945L9.10502 15.1865L9.90509 15.9866L7.29824 18.5933C7.84227 18.9824 8.41248 19.3336 9.00482 19.6442L10.7446 16.6307L11.7246 17.1966L10.0301 20.1314C10.7962 20.4594 11.5895 20.7201 12.4008 20.9106C12.4608 21.1265 12.5268 21.3407 12.5976 21.552C11.8492 22.157 11.1346 22.7926 10.4712 23.473C10.1928 23.3382 9.88745 23.2684 9.57813 23.2688C8.44548 23.2688 7.52717 24.1869 7.52717 25.3197C7.52717 25.4235 7.53504 25.5257 7.54999 25.6255C7.6723 24.9283 8.28019 24.3985 9.01238 24.3985C9.20026 24.3985 9.37978 24.4337 9.5452 24.4974C8.93349 25.2301 8.38312 26.0159 7.91612 26.8726C8.75754 26.4158 9.5923 25.9187 10.4076 25.3732C10.4673 25.5368 10.4977 25.7095 10.4975 25.8836C10.4975 26.6176 9.96497 27.2268 9.26529 27.3469C9.36884 27.3628 9.47344 27.3707 9.57819 27.3707C10.711 27.3707 11.6291 26.4524 11.6291 25.3197C11.6291 25.0672 11.5833 24.8256 11.4999 24.6023C12.1074 24.1502 12.7001 23.6681 13.2715 23.1502C13.4518 23.4956 13.6471 23.8183 13.8558 24.1079L11.2202 29.3858C14.1426 30.7463 18.2254 30.7638 20.7788 29.3858L18.228 24.2781C18.4533 23.9868 18.6645 23.6574 18.8592 23.3008C19.3786 23.762 19.9145 24.1951 20.4627 24.6031C20.3772 24.8323 20.3335 25.075 20.3337 25.3197C20.3337 26.4524 21.2519 27.3706 22.3847 27.3706C22.4911 27.3706 22.5958 27.3626 22.6979 27.347C21.9979 27.2269 21.4654 26.6177 21.4654 25.8837C21.4654 25.7042 21.4972 25.5322 21.5556 25.373C22.3708 25.9183 23.2054 26.4158 24.0467 26.8725C23.5799 26.0159 23.0307 25.2295 22.4194 24.4968C22.589 24.4317 22.7691 24.3984 22.9507 24.3985C23.6827 24.3985 24.2906 24.9283 24.4129 25.6253C24.4278 25.5256 24.4357 25.4236 24.4357 25.3198C24.4357 24.1869 23.5175 23.2689 22.3847 23.2689C22.0761 23.2684 21.7714 23.3379 21.4935 23.472C20.8876 22.8502 20.2377 22.2666 19.5592 21.7089C19.6772 21.3726 19.7809 21.0315 19.87 20.6865C20.3465 20.5437 20.8154 20.3763 21.2746 20.185L19.5492 17.1966L20.5292 16.6307L22.3057 19.7075C22.91 19.3981 23.4897 19.0475 24.0417 18.6595L21.3688 15.9866L22.1689 15.1864L24.9496 17.9668C25.5033 17.509 26.0227 17.0112 26.5036 16.4774L22.8133 14.3467L23.3789 13.367L27.2387 15.5953C27.7103 14.9823 28.1328 14.3331 28.5023 13.6536L23.7839 12.3892L24.0767 11.2963L29.0134 12.6191C29.355 11.8534 29.6302 11.0598 29.8358 10.247H24.2149V9.11554H30.0745C30.2148 8.29084 30.2853 7.45576 30.2852 6.61919C30.2852 6.54714 30.2837 6.47533 30.2825 6.40347L24.0766 8.06657L23.7838 6.97345L30.2184 5.24932C30.0864 3.88762 29.7631 2.57739 29.2948 1.35071H29.2946C27.689 3.86401 24.2333 5.82718 19.9241 6.6195C20.6912 7.56421 21.1618 8.77012 21.1618 10.0848C21.1618 11.9736 20.2098 13.64 18.7639 14.6258C17.4761 13.8746 16.166 12.8773 16.0078 11.973L17.0766 11.7423L16.9413 11.1155C17.8901 10.4292 18.996 10.5622 20.1765 11.1149L19.0684 8.66798L16.5313 9.21532L16.359 8.41683V8.41653L11.4625 9.47325L12.7012 11.3058C12.1808 12.4972 12.5367 13.8294 13.0312 14.8514C11.3841 13.9087 10.2707 12.1269 10.2707 10.0845C10.2707 8.76988 10.7413 7.56397 11.5083 6.61932C7.19931 5.82718 3.74365 3.86401 2.13807 1.35071H2.13795ZM15.2433 9.37723C15.5608 9.37383 15.8476 9.59356 15.9172 9.91609C15.9966 10.2845 15.7624 10.6477 15.3938 10.7272C15.0253 10.8067 14.6621 10.5725 14.5826 10.2039C14.5031 9.8355 14.7374 9.47216 15.1059 9.3926C15.1519 9.38274 15.1979 9.37771 15.2433 9.37723Z" fill="#1473B5"></path>
</svg>
