<svg width="19" height="98" viewBox="0 0 19 98" fill="none" xmlns="http://www.w3.org/2000/svg">
<path d="M14.625 13.5821C14.0233 13.5821 13.485 13.8196 13.0733 14.1917L7.42875 10.9063C7.46833 10.7242 7.5 10.5421 7.5 10.3521C7.5 10.1621 7.46833 9.98001 7.42875 9.79792L13.01 6.54417C13.4375 6.94001 13.9996 7.18542 14.625 7.18542C15.2549 7.18542 15.859 6.9352 16.3044 6.4898C16.7498 6.0444 17 5.44031 17 4.81042C17 4.18054 16.7498 3.57644 16.3044 3.13105C15.859 2.68565 15.2549 2.43542 14.625 2.43542C13.9951 2.43542 13.391 2.68565 12.9456 3.13105C12.5002 3.57644 12.25 4.18054 12.25 4.81042C12.25 5.00042 12.2817 5.18251 12.3212 5.36459L6.74 8.61834C6.3125 8.22251 5.75042 7.97709 5.125 7.97709C4.49511 7.97709 3.89102 8.22731 3.44562 8.67271C3.00022 9.11811 2.75 9.7222 2.75 10.3521C2.75 10.982 3.00022 11.5861 3.44562 12.0315C3.89102 12.4769 4.49511 12.7271 5.125 12.7271C5.75042 12.7271 6.3125 12.4817 6.74 12.0858L12.3767 15.3713C12.3371 15.5375 12.3133 15.7117 12.3133 15.8938C12.3133 17.1683 13.3504 18.1975 14.625 18.1975C15.8996 18.1975 16.9367 17.1683 16.9367 15.8938C16.9367 15.2807 16.6931 14.6927 16.2596 14.2592C15.8261 13.8256 15.2381 13.5821 14.625 13.5821Z" fill="#353537"></path>
</svg>
