<svg width="19" height="98" viewBox="0 0 19 98" fill="none" xmlns="http://www.w3.org/2000/svg">
<path d="M14.625 13.4421C14.0233 13.4421 13.485 13.6796 13.0733 14.0517L7.42875 10.7662C7.46833 10.5842 7.5 10.4021 7.5 10.2121C7.5 10.0221 7.46833 9.83999 7.42875 9.65791L13.01 6.40416C13.4375 6.79999 13.9996 7.04541 14.625 7.04541C15.2549 7.04541 15.859 6.79519 16.3044 6.34979C16.7498 5.90439 17 5.3003 17 4.67041C17 4.04052 16.7498 3.43643 16.3044 2.99103C15.859 2.54563 15.2549 2.29541 14.625 2.29541C13.9951 2.29541 13.391 2.54563 12.9456 2.99103C12.5002 3.43643 12.25 4.04052 12.25 4.67041C12.25 4.86041 12.2817 5.04249 12.3212 5.22458L6.74 8.47833C6.3125 8.08249 5.75042 7.83708 5.125 7.83708C4.49511 7.83708 3.89102 8.0873 3.44562 8.5327C3.00022 8.9781 2.75 9.58219 2.75 10.2121C2.75 10.842 3.00022 11.4461 3.44562 11.8915C3.89102 12.3369 4.49511 12.5871 5.125 12.5871C5.75042 12.5871 6.3125 12.3417 6.74 11.9458L12.3767 15.2312C12.3371 15.3975 12.3133 15.5717 12.3133 15.7537C12.3133 17.0283 13.3504 18.0575 14.625 18.0575C15.8996 18.0575 16.9367 17.0283 16.9367 15.7537C16.9367 15.1406 16.6931 14.5527 16.2596 14.1191C15.8261 13.6856 15.2381 13.4421 14.625 13.4421Z" fill="#353537"></path>
</svg>
