<svg width="53" height="241" viewBox="0 0 53 241" fill="none" xmlns="http://www.w3.org/2000/svg">
<path fill-rule="evenodd" clip-rule="evenodd" d="M50.4874 189.442C49.2167 189.442 48.1867 188.412 48.1867 187.141V186.702C48.1867 185.432 49.2167 184.402 50.4874 184.402C51.758 184.402 52.788 185.432 52.788 186.702V187.141C52.788 188.412 51.758 189.442 50.4874 189.442ZM50.4874 171.443C49.2167 171.443 48.1867 170.413 48.1867 169.142V168.264C48.1867 166.994 49.2167 165.964 50.4874 165.964C51.758 165.964 52.788 166.994 52.788 168.264V169.142C52.788 170.413 51.758 171.443 50.4874 171.443ZM50.4874 153.005C49.2167 153.005 48.1867 151.975 48.1867 150.704V149.826C48.1867 148.556 49.2167 147.526 50.4874 147.526C51.758 147.526 52.788 148.556 52.788 149.826V150.704C52.788 151.975 51.758 153.005 50.4874 153.005ZM50.4874 134.567C49.2167 134.567 48.1867 133.537 48.1867 132.267V131.389C48.1867 130.118 49.2167 129.088 50.4874 129.088C51.758 129.088 52.788 130.118 52.788 131.389V132.267C52.788 133.537 51.758 134.567 50.4874 134.567ZM50.4874 116.129C49.2167 116.129 48.1867 115.099 48.1867 113.829V112.951C48.1867 111.68 49.2167 110.65 50.4874 110.65C51.758 110.65 52.788 111.68 52.788 112.951V113.829C52.788 115.099 51.758 116.129 50.4874 116.129ZM50.4874 97.6916C49.2167 97.6916 48.1867 96.6615 48.1867 95.3909V94.5129C48.1867 93.2423 49.2167 92.2122 50.4874 92.2122C51.758 92.2122 52.788 93.2423 52.788 94.5129V95.3909C52.788 96.6615 51.758 97.6916 50.4874 97.6916ZM50.4874 79.2537C49.2167 79.2537 48.1867 78.2237 48.1867 76.953V76.075C48.1867 74.8044 49.2167 73.7744 50.4874 73.7744C51.758 73.7744 52.788 74.8044 52.788 76.075V76.953C52.788 78.2237 51.758 79.2537 50.4874 79.2537ZM50.4874 60.8159C49.2167 60.8159 48.1867 59.7858 48.1867 58.5152V57.6372C48.1867 56.3666 49.2167 55.3365 50.4874 55.3365C51.758 55.3365 52.788 56.3666 52.788 57.6372V58.5152C52.788 59.7858 51.758 60.8159 50.4874 60.8159ZM50.4874 42.378C49.2167 42.378 48.1867 41.348 48.1867 40.0773V39.1993C48.1867 37.9287 49.2167 36.8987 50.4874 36.8987C51.758 36.8987 52.788 37.9287 52.788 39.1993V40.0773C52.788 41.348 51.758 42.378 50.4874 42.378ZM50.4874 23.9402C49.2167 23.9402 48.1867 22.9101 48.1867 21.6395V20.7615C48.1867 19.4909 49.2167 18.4608 50.4874 18.4608C51.758 18.4608 52.788 19.4909 52.788 20.7615V21.6395C52.788 22.9101 51.758 23.9402 50.4874 23.9402ZM50.4874 5.5023C49.2167 5.5023 48.1867 4.47226 48.1867 3.20163V2.7626C48.1867 1.49197 49.2167 0.461914 50.4874 0.461914C51.758 0.461914 52.788 1.49197 52.788 2.7626V3.20163C52.788 4.47226 51.758 5.5023 50.4874 5.5023ZM26.4268 215.493C25.1562 215.493 24.1261 214.463 24.1261 213.192V212.753C24.1261 211.483 25.1562 210.453 26.4268 210.453C27.6974 210.453 28.7275 211.483 28.7275 212.753V213.192C28.7275 214.463 27.6974 215.493 26.4268 215.493ZM26.4268 197.494C25.1562 197.494 24.1261 196.464 24.1261 195.193V194.315C24.1261 193.045 25.1562 192.015 26.4268 192.015C27.6974 192.015 28.7275 193.045 28.7275 194.315V195.193C28.7275 196.464 27.6974 197.494 26.4268 197.494ZM26.4268 179.056C25.1562 179.056 24.1261 178.026 24.1261 176.756V175.878C24.1261 174.607 25.1562 173.577 26.4268 173.577C27.6974 173.577 28.7275 174.607 28.7275 175.878V176.756C28.7275 178.026 27.6974 179.056 26.4268 179.056ZM26.4268 160.618C25.1562 160.618 24.1261 159.588 24.1261 158.318V157.44C24.1261 156.169 25.1562 155.139 26.4268 155.139C27.6974 155.139 28.7275 156.169 28.7275 157.44V158.318C28.7275 159.588 27.6974 160.618 26.4268 160.618ZM26.4268 142.181C25.1562 142.181 24.1261 141.151 24.1261 139.88V139.002C24.1261 137.731 25.1562 136.701 26.4268 136.701C27.6974 136.701 28.7275 137.731 28.7275 139.002V139.88C28.7275 141.151 27.6974 142.181 26.4268 142.181ZM26.4268 123.743C25.1562 123.743 24.1261 122.713 24.1261 121.442V120.564C24.1261 119.293 25.1562 118.263 26.4268 118.263C27.6974 118.263 28.7275 119.293 28.7275 120.564V121.442C28.7275 122.713 27.6974 123.743 26.4268 123.743ZM26.4268 105.305C25.1562 105.305 24.1261 104.275 24.1261 103.004V102.126C24.1261 100.856 25.1562 99.8255 26.4268 99.8255C27.6974 99.8255 28.7275 100.856 28.7275 102.126V103.004C28.7275 104.275 27.6974 105.305 26.4268 105.305ZM26.4268 86.867C25.1562 86.867 24.1261 85.8369 24.1261 84.5663V83.6883C24.1261 82.4177 25.1562 81.3876 26.4268 81.3876C27.6974 81.3876 28.7275 82.4177 28.7275 83.6883V84.5663C28.7275 85.8369 27.6974 86.867 26.4268 86.867ZM26.4268 68.4291C25.1562 68.4291 24.1261 67.3991 24.1261 66.1285V65.2505C24.1261 63.9798 25.1562 62.9498 26.4268 62.9498C27.6974 62.9498 28.7275 63.9798 28.7275 65.2505V66.1285C28.7275 67.3991 27.6974 68.4291 26.4268 68.4291ZM26.4268 49.9913C25.1562 49.9913 24.1261 48.9612 24.1261 47.6906V46.8126C24.1261 45.542 25.1562 44.5119 26.4268 44.5119C27.6974 44.5119 28.7275 45.542 28.7275 46.8126V47.6906C28.7275 48.9612 27.6974 49.9913 26.4268 49.9913ZM26.4268 31.5534C25.1562 31.5534 24.1261 30.5234 24.1261 29.2528V28.8137C24.1261 27.5431 25.1562 26.513 26.4268 26.513C27.6974 26.513 28.7275 27.5431 28.7275 28.8137V29.2528C28.7275 30.5234 27.6974 31.5534 26.4268 31.5534ZM0.517151 238.059C0.517151 239.33 1.5472 240.36 2.81783 240.36C4.08847 240.36 5.11852 239.33 5.11852 238.059V237.62C5.11852 236.35 4.08847 235.32 2.81783 235.32C1.5472 235.32 0.517151 236.35 0.517151 237.62V238.059ZM0.517151 220.06C0.517151 221.331 1.5472 222.361 2.81783 222.361C4.08847 222.361 5.11852 221.331 5.11852 220.06V219.182C5.11852 217.912 4.08847 216.882 2.81783 216.882C1.5472 216.882 0.517151 217.912 0.517151 219.182V220.06ZM0.517151 201.623C0.517151 202.893 1.5472 203.923 2.81783 203.923C4.08847 203.923 5.11852 202.893 5.11852 201.623V200.745C5.11852 199.474 4.08847 198.444 2.81783 198.444C1.5472 198.444 0.517151 199.474 0.517151 200.745V201.623ZM0.517151 183.185C0.517151 184.455 1.5472 185.485 2.81783 185.485C4.08847 185.485 5.11852 184.455 5.11852 183.185V182.307C5.11852 181.036 4.08847 180.006 2.81783 180.006C1.5472 180.006 0.517151 181.036 0.517151 182.307V183.185ZM0.517151 164.747C0.517151 166.017 1.5472 167.047 2.81783 167.047C4.08847 167.047 5.11852 166.017 5.11852 164.747V163.869C5.11852 162.598 4.08847 161.568 2.81783 161.568C1.5472 161.568 0.517151 162.598 0.517151 163.869V164.747ZM0.517151 146.309C0.517151 147.58 1.5472 148.61 2.81783 148.61C4.08847 148.61 5.11852 147.58 5.11852 146.309V145.431C5.11852 144.16 4.08847 143.13 2.81783 143.13C1.5472 143.13 0.517151 144.16 0.517151 145.431V146.309ZM0.517151 127.871C0.517151 129.142 1.5472 130.172 2.81783 130.172C4.08847 130.172 5.11852 129.142 5.11852 127.871V126.993C5.11852 125.722 4.08847 124.692 2.81783 124.692C1.5472 124.692 0.517151 125.722 0.517151 126.993V127.871ZM0.517151 109.433C0.517151 110.704 1.5472 111.734 2.81783 111.734C4.08847 111.734 5.11852 110.704 5.11852 109.433V108.555C5.11852 107.285 4.08847 106.255 2.81783 106.255C1.5472 106.255 0.517151 107.285 0.517151 108.555V109.433ZM0.517151 90.9954C0.517151 92.266 1.5472 93.2961 2.81783 93.2961C4.08847 93.2961 5.11852 92.266 5.11852 90.9954V90.1174C5.11852 88.8468 4.08847 87.8167 2.81783 87.8167C1.5472 87.8167 0.517151 88.8468 0.517151 90.1174V90.9954ZM0.517151 72.5575C0.517151 73.8282 1.5472 74.8582 2.81783 74.8582C4.08847 74.8582 5.11852 73.8282 5.11852 72.5575V71.6796C5.11852 70.4089 4.08847 69.3789 2.81783 69.3789C1.5472 69.3789 0.517151 70.4089 0.517151 71.6796V72.5575ZM0.517151 54.1197C0.517151 55.3903 1.5472 56.4204 2.81783 56.4204C4.08847 56.4204 5.11852 55.3903 5.11852 54.1197V53.6807C5.11852 52.41 4.08847 51.38 2.81783 51.38C1.5472 51.38 0.517151 52.41 0.517151 53.6807V54.1197Z" fill="#C0E0F7"></path>
</svg>
