<svg width="13" height="10" viewBox="0 0 13 10" fill="none" xmlns="http://www.w3.org/2000/svg">
<path d="M12.199 1.44042C11.7642 1.62294 11.2969 1.74629 10.8064 1.80179C11.3071 1.51776 11.6915 1.06799 11.8725 0.532097C11.3966 0.799426 10.8759 0.987777 10.3329 1.08901C9.89057 0.642999 9.26047 0.364258 8.56306 0.364258C7.224 0.364258 6.13835 1.39183 6.13835 2.6592C6.13835 2.8391 6.15981 3.01424 6.20113 3.18225C4.18604 3.08651 2.39946 2.17286 1.20356 0.784357C0.994897 1.12331 0.87533 1.51759 0.87533 1.93812C0.87533 2.73436 1.30342 3.43679 1.95397 3.84837C1.56893 3.83695 1.19237 3.73852 0.85571 3.56128C0.855572 3.57089 0.855572 3.5805 0.855572 3.59016C0.855572 4.70211 1.69134 5.6297 2.80049 5.84054C2.44345 5.93245 2.06893 5.9459 1.70556 5.87986C2.01408 6.79164 2.90953 7.45513 3.97049 7.4737C3.14068 8.08921 2.09519 8.45613 0.959258 8.45613C0.763519 8.45613 0.57055 8.44525 0.380859 8.42406C1.45387 9.07522 2.72834 9.45517 4.09759 9.45517C8.55743 9.45517 10.9962 5.95808 10.9962 2.92536C10.9962 2.82582 10.9939 2.72685 10.9892 2.62844C11.4638 2.30364 11.8735 1.90134 12.199 1.44042" fill="white"></path>
</svg>
