<svg width="15" height="15" viewBox="0 0 15 15" fill="none" xmlns="http://www.w3.org/2000/svg">
<g clip-path="url(#clip0_89_1077)">
<path d="M1.96712 6.13048H3.71712V13.1305H1.96712C1.64496 13.1305 1.38379 12.8693 1.38379 12.5472V6.71381C1.38379 6.39164 1.64496 6.13048 1.96712 6.13048ZM5.05464 5.37629L8.78827 1.64268C8.89088 1.54004 9.0534 1.5285 9.16948 1.61559L9.66683 1.98859C9.94957 2.20065 10.077 2.56197 9.98976 2.90446L9.31701 5.54714H13.0505C13.6948 5.54714 14.2171 6.06948 14.2171 6.71381V7.94133C14.2171 8.09376 14.1873 8.24467 14.1293 8.38554L12.3242 12.7692C12.2342 12.9878 12.0212 13.1305 11.7848 13.1305H5.46712C5.14496 13.1305 4.88379 12.8693 4.88379 12.5472V5.78877C4.88379 5.63406 4.94525 5.48569 5.05464 5.37629Z" fill="white"/>
</g>
<defs>
<clipPath id="clip0_89_1077">
<rect width="14" height="14" fill="white" transform="translate(0.799805 0.880493)"/>
</clipPath>
</defs>
</svg>
