<svg width="31" height="32" viewBox="0 0 31 32" fill="none" xmlns="http://www.w3.org/2000/svg">
<path d="M2.13795 1.73071C1.66496 2.96987 1.34043 4.29445 1.21098 5.67098L7.48999 7.35358L7.19707 8.44657L1.15007 6.82616C1.14934 6.88392 1.14795 6.9415 1.14795 6.99932C1.14774 7.83589 1.21822 8.67097 1.35865 9.49567H7.0589V10.6271H1.59806C1.80001 11.4264 2.0692 12.2071 2.40272 12.961L7.19707 11.6764L7.48999 12.7693L2.91023 13.9966C3.27177 14.666 3.68465 15.3064 4.14514 15.9121L7.89499 13.7471L8.46068 14.727L4.87509 16.7972C5.34612 17.3256 5.85466 17.8193 6.39676 18.2745L9.10502 15.5665L9.90509 16.3666L7.29824 18.9733C7.84227 19.3624 8.41248 19.7136 9.00482 20.0242L10.7446 17.0107L11.7246 17.5766L10.0301 20.5114C10.7962 20.8394 11.5895 21.1001 12.4008 21.2906C12.4608 21.5065 12.5268 21.7207 12.5976 21.932C11.8492 22.537 11.1346 23.1726 10.4712 23.853C10.1928 23.7182 9.88745 23.6484 9.57813 23.6488C8.44548 23.6488 7.52717 24.5669 7.52717 25.6997C7.52717 25.8035 7.53504 25.9057 7.54999 26.0055C7.6723 25.3083 8.28019 24.7785 9.01238 24.7785C9.20026 24.7785 9.37978 24.8137 9.5452 24.8774C8.93349 25.6101 8.38312 26.3959 7.91612 27.2526C8.75754 26.7958 9.5923 26.2987 10.4076 25.7532C10.4673 25.9168 10.4977 26.0896 10.4975 26.2636C10.4975 26.9976 9.96497 27.6068 9.26529 27.7269C9.36884 27.7428 9.47344 27.7507 9.57819 27.7507C10.711 27.7507 11.6291 26.8324 11.6291 25.6997C11.6291 25.4472 11.5833 25.2056 11.4999 24.9823C12.1074 24.5302 12.7001 24.0481 13.2715 23.5302C13.4518 23.8756 13.6471 24.1983 13.8558 24.4879L11.2202 29.7658C14.1426 31.1263 18.2254 31.1438 20.7788 29.7658L18.228 24.6581C18.4533 24.3668 18.6645 24.0375 18.8592 23.6808C19.3786 24.142 19.9145 24.5751 20.4627 24.9831C20.3772 25.2123 20.3335 25.455 20.3337 25.6997C20.3337 26.8324 21.2519 27.7506 22.3847 27.7506C22.4911 27.7506 22.5958 27.7426 22.6979 27.727C21.9979 27.6069 21.4654 26.9977 21.4654 26.2637C21.4654 26.0842 21.4972 25.9122 21.5556 25.753C22.3708 26.2983 23.2054 26.7958 24.0467 27.2526C23.5799 26.3959 23.0307 25.6096 22.4194 24.8768C22.589 24.8118 22.7691 24.7784 22.9507 24.7785C23.6827 24.7785 24.2906 25.3083 24.4129 26.0053C24.4278 25.9056 24.4357 25.8036 24.4357 25.6998C24.4357 24.5669 23.5175 23.6489 22.3847 23.6489C22.0761 23.6484 21.7714 23.7179 21.4935 23.852C20.8876 23.2302 20.2377 22.6466 19.5592 22.0889C19.6772 21.7526 19.7809 21.4115 19.87 21.0665C20.3465 20.9237 20.8154 20.7563 21.2746 20.565L19.5492 17.5766L20.5292 17.0107L22.3057 20.0875C22.91 19.7781 23.4897 19.4275 24.0417 19.0396L21.3688 16.3666L22.1689 15.5664L24.9496 18.3468C25.5033 17.889 26.0227 17.3912 26.5036 16.8574L22.8133 14.7267L23.3789 13.747L27.2387 15.9753C27.7103 15.3623 28.1328 14.7131 28.5023 14.0336L23.7839 12.7692L24.0767 11.6763L29.0134 12.9991C29.355 12.2334 29.6302 11.4398 29.8358 10.627H24.2149V9.49555H30.0745C30.2148 8.67084 30.2853 7.83576 30.2852 6.9992C30.2852 6.92715 30.2837 6.85534 30.2825 6.78347L24.0766 8.44657L23.7838 7.35346L30.2184 5.62933C30.0864 4.26763 29.7631 2.95739 29.2948 1.73071H29.2946C27.689 4.24401 24.2333 6.20719 19.9241 6.9995C20.6912 7.94422 21.1618 9.15013 21.1618 10.4648C21.1618 12.3536 20.2098 14.02 18.7639 15.0058C17.4761 14.2546 16.166 13.2573 16.0078 12.353L17.0766 12.1223L16.9413 11.4955C17.8901 10.8092 18.996 10.9423 20.1765 11.4949L19.0684 9.04798L16.5313 9.59533L16.359 8.79684V8.79653L11.4625 9.85326L12.7012 11.6858C12.1808 12.8772 12.5367 14.2094 13.0312 15.2314C11.3841 14.2887 10.2707 12.5069 10.2707 10.4645C10.2707 9.14988 10.7413 7.94397 11.5083 6.99932C7.19931 6.20719 3.74365 4.24401 2.13807 1.73071H2.13795ZM15.2433 9.75723C15.5608 9.75384 15.8476 9.97356 15.9172 10.2961C15.9966 10.6645 15.7624 11.0277 15.3938 11.1072C15.0253 11.1867 14.6621 10.9525 14.5826 10.5839C14.5031 10.2155 14.7374 9.85217 15.1059 9.77261C15.1519 9.76274 15.1979 9.75772 15.2433 9.75723Z" fill="#1473B5"/>
</svg>
