<svg width="26" height="24" viewBox="0 0 26 24" fill="none" xmlns="http://www.w3.org/2000/svg">
<path d="M18.7759 16.6569C17.7916 17.6095 15.7149 19.6194 14.321 20.9684C13.5455 21.7189 12.3159 21.7184 11.5405 20.9679C10.1707 19.6422 8.1354 17.6724 7.08607 16.6569C3.85803 13.5327 3.85803 8.46734 7.08607 5.34315C10.3141 2.21895 15.5478 2.21895 18.7759 5.34315C22.0039 8.46734 22.0039 13.5327 18.7759 16.6569Z" stroke="#9CA3AF" stroke-width="2" stroke-linecap="round" stroke-linejoin="round"/>
<path d="M16.0307 11C16.0307 12.6569 14.6429 14 12.931 14C11.219 14 9.83124 12.6569 9.83124 11C9.83124 9.34315 11.219 8 12.931 8C14.6429 8 16.0307 9.34315 16.0307 11Z" stroke="#9CA3AF" stroke-width="2" stroke-linecap="round" stroke-linejoin="round"/>
</svg>
