<svg width="19" height="130" viewBox="0 0 19 130" fill="none" xmlns="http://www.w3.org/2000/svg">
<path d="M14.625 13.8221C14.0233 13.8221 13.485 14.0596 13.0733 14.4317L7.42875 11.1462C7.46833 10.9642 7.5 10.7821 7.5 10.5921C7.5 10.4021 7.46833 10.22 7.42875 10.0379L13.01 6.78416C13.4375 7.18 13.9996 7.42541 14.625 7.42541C15.2549 7.42541 15.859 7.17519 16.3044 6.72979C16.7498 6.28439 17 5.6803 17 5.05041C17 4.42053 16.7498 3.81644 16.3044 3.37104C15.859 2.92564 15.2549 2.67542 14.625 2.67542C13.9951 2.67542 13.391 2.92564 12.9456 3.37104C12.5002 3.81644 12.25 4.42053 12.25 5.05041C12.25 5.24041 12.2817 5.4225 12.3212 5.60458L6.74 8.85833C6.3125 8.4625 5.75042 8.21708 5.125 8.21708C4.49511 8.21708 3.89102 8.4673 3.44562 8.9127C3.00022 9.3581 2.75 9.96219 2.75 10.5921C2.75 11.222 3.00022 11.8261 3.44562 12.2715C3.89102 12.7169 4.49511 12.9671 5.125 12.9671C5.75042 12.9671 6.3125 12.7217 6.74 12.3258L12.3767 15.6112C12.3371 15.7775 12.3133 15.9517 12.3133 16.1337C12.3133 17.4083 13.3504 18.4375 14.625 18.4375C15.8996 18.4375 16.9367 17.4083 16.9367 16.1337C16.9367 15.5207 16.6931 14.9327 16.2596 14.4992C15.8261 14.0656 15.2381 13.8221 14.625 13.8221Z" fill="#353537"/>
</svg>
