<svg width="19" height="98" viewBox="0 0 19 98" fill="none" xmlns="http://www.w3.org/2000/svg">
<path d="M14.625 13.2021C14.0233 13.2021 13.485 13.4396 13.0733 13.8117L7.42875 10.5263C7.46833 10.3442 7.5 10.1621 7.5 9.97208C7.5 9.78208 7.46833 9.6 7.42875 9.41792L13.01 6.16417C13.4375 6.56 13.9996 6.80542 14.625 6.80542C15.2549 6.80542 15.859 6.5552 16.3044 6.1098C16.7498 5.6644 17 5.06031 17 4.43042C17 3.80053 16.7498 3.19644 16.3044 2.75104C15.859 2.30564 15.2549 2.05542 14.625 2.05542C13.9951 2.05542 13.391 2.30564 12.9456 2.75104C12.5002 3.19644 12.25 3.80053 12.25 4.43042C12.25 4.62042 12.2817 4.8025 12.3212 4.98459L6.74 8.23834C6.3125 7.8425 5.75042 7.59709 5.125 7.59709C4.49511 7.59709 3.89102 7.84731 3.44562 8.29271C3.00022 8.73811 2.75 9.3422 2.75 9.97208C2.75 10.602 3.00022 11.2061 3.44562 11.6515C3.89102 12.0969 4.49511 12.3471 5.125 12.3471C5.75042 12.3471 6.3125 12.1017 6.74 11.7058L12.3767 14.9913C12.3371 15.1575 12.3133 15.3317 12.3133 15.5138C12.3133 16.7883 13.3504 17.8175 14.625 17.8175C15.8996 17.8175 16.9367 16.7883 16.9367 15.5138C16.9367 14.9007 16.6931 14.3127 16.2596 13.8792C15.8261 13.4456 15.2381 13.2021 14.625 13.2021Z" fill="#353537"/>
</svg>
