<svg width="24" height="24" viewBox="0 0 24 24" fill="none" xmlns="http://www.w3.org/2000/svg">
<g clip-path="url(#clip0_70_1788)">
<path d="M15 2.00049C15.5304 2.00049 16.0391 2.2112 16.4142 2.58627C16.7893 2.96135 17 3.47006 17 4.00049V9.00049H19C19.5304 9.00049 20.0391 9.2112 20.4142 9.58628C20.7893 9.96135 21 10.4701 21 11.0005V20.9005C21 21.0449 20.9715 21.188 20.9163 21.3214C20.861 21.4549 20.78 21.5762 20.6778 21.6783C20.5757 21.7805 20.4544 21.8615 20.321 21.9168C20.1875 21.972 20.0445 22.0005 19.9 22.0005H4.1C3.95555 22.0005 3.81251 21.972 3.67905 21.9168C3.54559 21.8615 3.42433 21.7805 3.32218 21.6783C3.22004 21.5762 3.13901 21.4549 3.08373 21.3214C3.02845 21.188 3 21.0449 3 20.9005V4.00049C3 3.47006 3.21071 2.96135 3.58579 2.58627C3.96086 2.2112 4.46957 2.00049 5 2.00049H15ZM15 4.00049H5V20.0005H7V17.0005C7 16.2048 7.31607 15.4418 7.87868 14.8792C8.44129 14.3166 9.20435 14.0005 10 14.0005C10.7956 14.0005 11.5587 14.3166 12.1213 14.8792C12.6839 15.4418 13 16.2048 13 17.0005V20.0005H15V4.00049ZM19 11.0005H17V20.0005H19V11.0005ZM10 16.0005C9.75507 16.0005 9.51866 16.0904 9.33563 16.2532C9.15259 16.416 9.03566 16.6402 9.007 16.8835L9 17.0005V20.0005H11V17.0005C11 16.7353 10.8946 16.4809 10.7071 16.2934C10.5196 16.1058 10.2652 16.0005 10 16.0005ZM10 6.00049C10.2652 6.00049 10.5196 6.10585 10.7071 6.29338C10.8946 6.48092 11 6.73527 11 7.00049V8.00049H12C12.2652 8.00049 12.5196 8.10585 12.7071 8.29338C12.8946 8.48092 13 8.73527 13 9.00049C13 9.2657 12.8946 9.52006 12.7071 9.70759C12.5196 9.89513 12.2652 10.0005 12 10.0005H11V11.0005C11 11.2657 10.8946 11.5201 10.7071 11.7076C10.5196 11.8951 10.2652 12.0005 10 12.0005C9.73478 12.0005 9.48043 11.8951 9.29289 11.7076C9.10536 11.5201 9 11.2657 9 11.0005V10.0005H8C7.73478 10.0005 7.48043 9.89513 7.29289 9.70759C7.10536 9.52006 7 9.2657 7 9.00049C7 8.73527 7.10536 8.48092 7.29289 8.29338C7.48043 8.10585 7.73478 8.00049 8 8.00049H9V7.00049C9 6.73527 9.10536 6.48092 9.29289 6.29338C9.48043 6.10585 9.73478 6.00049 10 6.00049Z" fill="#1473B5"/>
</g>
<defs>
<clipPath id="clip0_70_1788">
<rect width="24" height="24" fill="white" transform="translate(0 0.000488281)"/>
</clipPath>
</defs>
</svg>
