<svg width="24" height="25" viewBox="0 0 24 25" fill="none" xmlns="http://www.w3.org/2000/svg">
<g clip-path="url(#clip0_89_1166)">
<path d="M15 2.1405C15.5304 2.1405 16.0391 2.35122 16.4142 2.72629C16.7893 3.10136 17 3.61007 17 4.1405V9.1405H19C19.5304 9.1405 20.0391 9.35122 20.4142 9.72629C20.7893 10.1014 21 10.6101 21 11.1405V21.0405C21 21.185 20.9715 21.328 20.9163 21.4615C20.861 21.5949 20.78 21.7162 20.6778 21.8183C20.5757 21.9205 20.4544 22.0015 20.321 22.0568C20.1875 22.1121 20.0445 22.1405 19.9 22.1405H4.1C3.95555 22.1405 3.81251 22.1121 3.67905 22.0568C3.54559 22.0015 3.42433 21.9205 3.32218 21.8183C3.22004 21.7162 3.13901 21.5949 3.08373 21.4615C3.02845 21.328 3 21.185 3 21.0405V4.1405C3 3.61007 3.21071 3.10136 3.58579 2.72629C3.96086 2.35122 4.46957 2.1405 5 2.1405H15ZM15 4.1405H5V20.1405H7V17.1405C7 16.3449 7.31607 15.5818 7.87868 15.0192C8.44129 14.4566 9.20435 14.1405 10 14.1405C10.7956 14.1405 11.5587 14.4566 12.1213 15.0192C12.6839 15.5818 13 16.3449 13 17.1405V20.1405H15V4.1405ZM19 11.1405H17V20.1405H19V11.1405ZM10 16.1405C9.75507 16.1405 9.51866 16.2305 9.33563 16.3932C9.15259 16.556 9.03566 16.7803 9.007 17.0235L9 17.1405V20.1405H11V17.1405C11 16.8753 10.8946 16.6209 10.7071 16.4334C10.5196 16.2459 10.2652 16.1405 10 16.1405ZM10 6.1405C10.2652 6.1405 10.5196 6.24586 10.7071 6.4334C10.8946 6.62093 11 6.87529 11 7.1405V8.1405H12C12.2652 8.1405 12.5196 8.24586 12.7071 8.4334C12.8946 8.62093 13 8.87529 13 9.1405C13 9.40572 12.8946 9.66007 12.7071 9.84761C12.5196 10.0351 12.2652 10.1405 12 10.1405H11V11.1405C11 11.4057 10.8946 11.6601 10.7071 11.8476C10.5196 12.0351 10.2652 12.1405 10 12.1405C9.73478 12.1405 9.48043 12.0351 9.29289 11.8476C9.10536 11.6601 9 11.4057 9 11.1405V10.1405H8C7.73478 10.1405 7.48043 10.0351 7.29289 9.84761C7.10536 9.66007 7 9.40572 7 9.1405C7 8.87529 7.10536 8.62093 7.29289 8.4334C7.48043 8.24586 7.73478 8.1405 8 8.1405H9V7.1405C9 6.87529 9.10536 6.62093 9.29289 6.4334C9.48043 6.24586 9.73478 6.1405 10 6.1405Z" fill="#1473B5"/>
</g>
<defs>
<clipPath id="clip0_89_1166">
<rect width="24" height="24" fill="white" transform="translate(0 0.140503)"/>
</clipPath>
</defs>
</svg>
