<svg width="24" height="25" viewBox="0 0 24 25" fill="none" xmlns="http://www.w3.org/2000/svg">
<g clip-path="url(#clip0_89_1125)">
<path d="M15 2.7605C15.5304 2.7605 16.0391 2.97121 16.4142 3.34628C16.7893 3.72136 17 4.23007 17 4.7605V9.7605H19C19.5304 9.7605 20.0391 9.97121 20.4142 10.3463C20.7893 10.7214 21 11.2301 21 11.7605V21.6605C21 21.805 20.9715 21.948 20.9163 22.0814C20.861 22.2149 20.78 22.3362 20.6778 22.4383C20.5757 22.5405 20.4544 22.6215 20.321 22.6768C20.1875 22.732 20.0445 22.7605 19.9 22.7605H4.1C3.95555 22.7605 3.81251 22.732 3.67905 22.6768C3.54559 22.6215 3.42433 22.5405 3.32218 22.4383C3.22004 22.3362 3.13901 22.2149 3.08373 22.0814C3.02845 21.948 3 21.805 3 21.6605V4.7605C3 4.23007 3.21071 3.72136 3.58579 3.34628C3.96086 2.97121 4.46957 2.7605 5 2.7605H15ZM15 4.7605H5V20.7605H7V17.7605C7 16.9648 7.31607 16.2018 7.87868 15.6392C8.44129 15.0766 9.20435 14.7605 10 14.7605C10.7956 14.7605 11.5587 15.0766 12.1213 15.6392C12.6839 16.2018 13 16.9648 13 17.7605V20.7605H15V4.7605ZM19 11.7605H17V20.7605H19V11.7605ZM10 16.7605C9.75507 16.7605 9.51866 16.8505 9.33563 17.0132C9.15259 17.176 9.03566 17.4002 9.007 17.6435L9 17.7605V20.7605H11V17.7605C11 17.4953 10.8946 17.2409 10.7071 17.0534C10.5196 16.8659 10.2652 16.7605 10 16.7605ZM10 6.7605C10.2652 6.7605 10.5196 6.86586 10.7071 7.05339C10.8946 7.24093 11 7.49528 11 7.7605V8.7605H12C12.2652 8.7605 12.5196 8.86586 12.7071 9.05339C12.8946 9.24093 13 9.49528 13 9.7605C13 10.0257 12.8946 10.2801 12.7071 10.4676C12.5196 10.6551 12.2652 10.7605 12 10.7605H11V11.7605C11 12.0257 10.8946 12.2801 10.7071 12.4676C10.5196 12.6551 10.2652 12.7605 10 12.7605C9.73478 12.7605 9.48043 12.6551 9.29289 12.4676C9.10536 12.2801 9 12.0257 9 11.7605V10.7605H8C7.73478 10.7605 7.48043 10.6551 7.29289 10.4676C7.10536 10.2801 7 10.0257 7 9.7605C7 9.49528 7.10536 9.24093 7.29289 9.05339C7.48043 8.86586 7.73478 8.7605 8 8.7605H9V7.7605C9 7.49528 9.10536 7.24093 9.29289 7.05339C9.48043 6.86586 9.73478 6.7605 10 6.7605Z" fill="#1473B5"/>
</g>
<defs>
<clipPath id="clip0_89_1125">
<rect width="24" height="24" fill="white" transform="translate(0 0.760498)"/>
</clipPath>
</defs>
</svg>
