<svg width="24" height="25" viewBox="0 0 24 25" fill="none" xmlns="http://www.w3.org/2000/svg">
<g clip-path="url(#clip0_89_1084)">
<path d="M15 2.38049C15.5304 2.38049 16.0391 2.59121 16.4142 2.96628C16.7893 3.34135 17 3.85006 17 4.38049V9.38049H19C19.5304 9.38049 20.0391 9.59121 20.4142 9.96628C20.7893 10.3414 21 10.8501 21 11.3805V21.2805C21 21.4249 20.9715 21.568 20.9163 21.7014C20.861 21.8349 20.78 21.9562 20.6778 22.0583C20.5757 22.1605 20.4544 22.2415 20.321 22.2968C20.1875 22.352 20.0445 22.3805 19.9 22.3805H4.1C3.95555 22.3805 3.81251 22.352 3.67905 22.2968C3.54559 22.2415 3.42433 22.1605 3.32218 22.0583C3.22004 21.9562 3.13901 21.8349 3.08373 21.7014C3.02845 21.568 3 21.4249 3 21.2805V4.38049C3 3.85006 3.21071 3.34135 3.58579 2.96628C3.96086 2.59121 4.46957 2.38049 5 2.38049H15ZM15 4.38049H5V20.3805H7V17.3805C7 16.5848 7.31607 15.8218 7.87868 15.2592C8.44129 14.6966 9.20435 14.3805 10 14.3805C10.7956 14.3805 11.5587 14.6966 12.1213 15.2592C12.6839 15.8218 13 16.5848 13 17.3805V20.3805H15V4.38049ZM19 11.3805H17V20.3805H19V11.3805ZM10 16.3805C9.75507 16.3805 9.51866 16.4705 9.33563 16.6332C9.15259 16.796 9.03566 17.0202 9.007 17.2635L9 17.3805V20.3805H11V17.3805C11 17.1153 10.8946 16.8609 10.7071 16.6734C10.5196 16.4858 10.2652 16.3805 10 16.3805ZM10 6.38049C10.2652 6.38049 10.5196 6.48585 10.7071 6.67339C10.8946 6.86092 11 7.11528 11 7.38049V8.38049H12C12.2652 8.38049 12.5196 8.48585 12.7071 8.67339C12.8946 8.86092 13 9.11528 13 9.38049C13 9.64571 12.8946 9.90006 12.7071 10.0876C12.5196 10.2751 12.2652 10.3805 12 10.3805H11V11.3805C11 11.6457 10.8946 11.9001 10.7071 12.0876C10.5196 12.2751 10.2652 12.3805 10 12.3805C9.73478 12.3805 9.48043 12.2751 9.29289 12.0876C9.10536 11.9001 9 11.6457 9 11.3805V10.3805H8C7.73478 10.3805 7.48043 10.2751 7.29289 10.0876C7.10536 9.90006 7 9.64571 7 9.38049C7 9.11528 7.10536 8.86092 7.29289 8.67339C7.48043 8.48585 7.73478 8.38049 8 8.38049H9V7.38049C9 7.11528 9.10536 6.86092 9.29289 6.67339C9.48043 6.48585 9.73478 6.38049 10 6.38049Z" fill="#1473B5"/>
</g>
<defs>
<clipPath id="clip0_89_1084">
<rect width="24" height="24" fill="white" transform="translate(0 0.380493)"/>
</clipPath>
</defs>
</svg>
