<svg width="27" height="26" viewBox="0 0 27 26" fill="none" xmlns="http://www.w3.org/2000/svg">
<path fill-rule="evenodd" clip-rule="evenodd" d="M10.8996 5.2001C8.02771 5.2001 5.6996 7.52822 5.6996 10.4001C5.6996 13.272 8.02771 15.6001 10.8996 15.6001C13.7715 15.6001 16.0996 13.272 16.0996 10.4001C16.0996 7.52822 13.7715 5.2001 10.8996 5.2001ZM3.09961 10.4001C3.09961 6.09228 6.59178 2.6001 10.8996 2.6001C15.2074 2.6001 18.6996 6.09228 18.6996 10.4001C18.6996 12.0847 18.1655 13.6445 17.2575 14.9196L23.5188 21.1809C24.0265 21.6885 24.0265 22.5117 23.5188 23.0193C23.0111 23.527 22.188 23.527 21.6803 23.0193L15.4191 16.7581C14.144 17.6661 12.5842 18.2001 10.8996 18.2001C6.59178 18.2001 3.09961 14.7079 3.09961 10.4001Z" fill="white"/>
</svg>
