<svg width="24" height="24" viewBox="0 0 24 24" fill="none" xmlns="http://www.w3.org/2000/svg">
<path fill-rule="evenodd" clip-rule="evenodd" d="M9.60037 4.7999C6.94941 4.7999 4.80038 6.94894 4.80038 9.5999C4.80038 12.2509 6.94941 14.3999 9.60037 14.3999C12.2513 14.3999 14.4004 12.2509 14.4004 9.5999C14.4004 6.94894 12.2513 4.7999 9.60037 4.7999ZM2.40039 9.5999C2.40039 5.62345 5.62393 2.3999 9.60037 2.3999C13.5768 2.3999 16.8003 5.62345 16.8003 9.5999C16.8003 11.1549 16.3074 12.5948 15.4692 13.7717L21.2489 19.5514C21.7175 20.02 21.7175 20.7798 21.2489 21.2484C20.7802 21.7171 20.0204 21.7171 19.5518 21.2484L13.7722 15.4688C12.5952 16.307 11.1554 16.7999 9.60037 16.7999C5.62393 16.7999 2.40039 13.5764 2.40039 9.5999Z" fill="#49ABE7"/>
</svg>
