<svg width="29" height="24" viewBox="0 0 29 24" fill="none" xmlns="http://www.w3.org/2000/svg">
<path fill-rule="evenodd" clip-rule="evenodd" d="M11.9978 4.7999C8.89148 4.7999 6.3733 6.94894 6.3733 9.5999C6.3733 12.2509 8.89148 14.3999 11.9978 14.3999C15.1042 14.3999 17.6223 12.2509 17.6223 9.5999C17.6223 6.94894 15.1042 4.7999 11.9978 4.7999ZM3.56104 9.5999C3.56104 5.62345 7.33831 2.3999 11.9978 2.3999C16.6573 2.3999 20.4346 5.62345 20.4346 9.5999C20.4346 11.1549 19.857 12.5948 18.8749 13.7717L25.6473 19.5514C26.1964 20.02 26.1964 20.7798 25.6473 21.2484C25.0982 21.7171 24.2078 21.7171 23.6587 21.2484L16.8863 15.4688C15.5071 16.307 13.8199 16.7999 11.9978 16.7999C7.33831 16.7999 3.56104 13.5764 3.56104 9.5999Z" fill="#49ABE7"/>
</svg>
